<?xml version="1.0" encoding="UTF-8" standalone="no"?>
<!DOCTYPE svg PUBLIC "-//W3C//DTD SVG 1.1//EN"
 "http://www.w3.org/Graphics/SVG/1.1/DTD/svg11.dtd">
<!-- Generated by graphviz version 2.40.1 (20161225.0304)
 -->
<!-- Title: dependencies Pages: 1 -->
<svg width="1036pt" height="211pt"
 viewBox="0.00 0.00 1036.00 211.00" xmlns="http://www.w3.org/2000/svg" xmlns:xlink="http://www.w3.org/1999/xlink">
<g id="graph0" class="graph" transform="scale(1 1) rotate(0) translate(4 207)">
<title>dependencies</title>
<polygon fill="#ffffff" stroke="transparent" points="-4,4 -4,-207 1032,-207 1032,4 -4,4"/>
<text text-anchor="start" x="493.0091" y="-42.4" font-family="sans-serif" font-weight="bold" font-size="14.00" fill="#000000">Legend</text>
<polygon fill="#ffffb3" stroke="transparent" points="280,-10 280,-30 300,-30 300,-10 280,-10"/>
<text text-anchor="start" x="303.629" y="-15.4" font-family="sans-serif" font-size="14.00" fill="#000000"> &#160;Declarations</text>
<polygon fill="#8dd3c7" stroke="transparent" points="393,-10 393,-30 413,-30 413,-10 393,-10"/>
<text text-anchor="start" x="416.7251" y="-15.4" font-family="sans-serif" font-size="14.00" fill="#000000"> &#160;Module</text>
<polygon fill="#80b1d3" stroke="transparent" points="479,-10 479,-30 499,-30 499,-10 479,-10"/>
<text text-anchor="start" x="502.7812" y="-15.4" font-family="sans-serif" font-size="14.00" fill="#000000"> &#160;Bootstrap</text>
<polygon fill="#fdb462" stroke="transparent" points="576,-10 576,-30 596,-30 596,-10 576,-10"/>
<text text-anchor="start" x="599.6732" y="-15.4" font-family="sans-serif" font-size="14.00" fill="#000000"> &#160;Providers</text>
<polygon fill="#fb8072" stroke="transparent" points="672,-10 672,-30 692,-30 692,-10 672,-10"/>
<text text-anchor="start" x="695.7258" y="-15.4" font-family="sans-serif" font-size="14.00" fill="#000000"> &#160;Exports</text>
<g id="clust1" class="cluster">
<title>cluster_CoreModule</title>
<polygon fill="none" stroke="#000000" stroke-dasharray="1,5" points="8,-70 8,-195 1020,-195 1020,-70 8,-70"/>
</g>
<g id="clust6" class="cluster">
<title>cluster_CoreModule_providers</title>
<polygon fill="none" stroke="#000000" points="16,-78 16,-130 1012,-130 1012,-78 16,-78"/>
</g>
<!-- AcademicLevelService -->
<g id="node1" class="node">
<title>AcademicLevelService</title>
<ellipse fill="#fdb462" stroke="#000000" cx="903" cy="-104" rx="101.2389" ry="18"/>
<text text-anchor="middle" x="903" y="-99.8" font-family="Times,serif" font-size="14.00" fill="#000000">AcademicLevelService</text>
</g>
<!-- CoreModule -->
<g id="node6" class="node">
<title>CoreModule</title>
<polygon fill="#8dd3c7" stroke="#000000" points="510.2619,-187 507.2619,-191 486.2619,-191 483.2619,-187 423.7381,-187 423.7381,-151 510.2619,-151 510.2619,-187"/>
<text text-anchor="middle" x="467" y="-164.8" font-family="Times,serif" font-size="14.00" fill="#000000">CoreModule</text>
</g>
<!-- AcademicLevelService&#45;&gt;CoreModule -->
<g id="edge1" class="edge">
<title>AcademicLevelService&#45;&gt;CoreModule</title>
<path fill="none" stroke="#000000" d="M903,-122.2843C903,-143.3211 903,-175 903,-175 903,-175 520.3993,-175 520.3993,-175"/>
<polygon fill="#000000" stroke="#000000" points="520.3994,-171.5001 510.3993,-175 520.3993,-178.5001 520.3994,-171.5001"/>
</g>
<!-- ErrorHandlerService -->
<g id="node2" class="node">
<title>ErrorHandlerService</title>
<ellipse fill="#fdb462" stroke="#000000" cx="692" cy="-104" rx="91.4288" ry="18"/>
<text text-anchor="middle" x="692" y="-99.8" font-family="Times,serif" font-size="14.00" fill="#000000">ErrorHandlerService</text>
</g>
<!-- ErrorHandlerService&#45;&gt;CoreModule -->
<g id="edge2" class="edge">
<title>ErrorHandlerService&#45;&gt;CoreModule</title>
<path fill="none" stroke="#000000" d="M692,-122.0225C692,-139.3734 692,-163 692,-163 692,-163 520.3823,-163 520.3823,-163"/>
<polygon fill="#000000" stroke="#000000" points="520.3823,-159.5001 510.3823,-163 520.3822,-166.5001 520.3823,-159.5001"/>
</g>
<!-- InstitutionCategoryService -->
<g id="node3" class="node">
<title>InstitutionCategoryService</title>
<ellipse fill="#fdb462" stroke="#000000" cx="467" cy="-104" rx="115.1841" ry="18"/>
<text text-anchor="middle" x="467" y="-99.8" font-family="Times,serif" font-size="14.00" fill="#000000">InstitutionCategoryService</text>
</g>
<!-- InstitutionCategoryService&#45;&gt;CoreModule -->
<g id="edge3" class="edge">
<title>InstitutionCategoryService&#45;&gt;CoreModule</title>
<path fill="none" stroke="#000000" d="M467,-122.1061C467,-122.1061 467,-140.991 467,-140.991"/>
<polygon fill="#000000" stroke="#000000" points="463.5001,-140.9909 467,-150.991 470.5001,-140.991 463.5001,-140.9909"/>
</g>
<!-- InstitutionService -->
<g id="node4" class="node">
<title>InstitutionService</title>
<ellipse fill="#fdb462" stroke="#000000" cx="254" cy="-104" rx="79.8895" ry="18"/>
<text text-anchor="middle" x="254" y="-99.8" font-family="Times,serif" font-size="14.00" fill="#000000">InstitutionService</text>
</g>
<!-- InstitutionService&#45;&gt;CoreModule -->
<g id="edge4" class="edge">
<title>InstitutionService&#45;&gt;CoreModule</title>
<path fill="none" stroke="#000000" d="M254,-122.0225C254,-139.3734 254,-163 254,-163 254,-163 413.6395,-163 413.6395,-163"/>
<polygon fill="#000000" stroke="#000000" points="413.6396,-166.5001 423.6395,-163 413.6395,-159.5001 413.6396,-166.5001"/>
</g>
<!-- PersonService -->
<g id="node5" class="node">
<title>PersonService</title>
<ellipse fill="#fdb462" stroke="#000000" cx="90" cy="-104" rx="66.0492" ry="18"/>
<text text-anchor="middle" x="90" y="-99.8" font-family="Times,serif" font-size="14.00" fill="#000000">PersonService</text>
</g>
<!-- PersonService&#45;&gt;CoreModule -->
<g id="edge5" class="edge">
<title>PersonService&#45;&gt;CoreModule</title>
<path fill="none" stroke="#000000" d="M90,-122.2843C90,-143.3211 90,-175 90,-175 90,-175 413.385,-175 413.385,-175"/>
<polygon fill="#000000" stroke="#000000" points="413.385,-178.5001 423.385,-175 413.385,-171.5001 413.385,-178.5001"/>
</g>
</g>
</svg>
