<?xml version="1.0" encoding="UTF-8" standalone="no"?>
<!DOCTYPE svg PUBLIC "-//W3C//DTD SVG 1.1//EN"
 "http://www.w3.org/Graphics/SVG/1.1/DTD/svg11.dtd">
<!-- Generated by graphviz version 2.40.1 (20161225.0304)
 -->
<!-- Title: dependencies Pages: 1 -->
<svg width="772pt" height="211pt"
 viewBox="0.00 0.00 772.00 211.00" xmlns="http://www.w3.org/2000/svg" xmlns:xlink="http://www.w3.org/1999/xlink">
<g id="graph0" class="graph" transform="scale(1 1) rotate(0) translate(4 207)">
<title>dependencies</title>
<polygon fill="#ffffff" stroke="transparent" points="-4,4 -4,-207 768,-207 768,4 -4,4"/>
<text text-anchor="start" x="361.0091" y="-42.4" font-family="sans-serif" font-weight="bold" font-size="14.00" fill="#000000">Legend</text>
<polygon fill="#ffffb3" stroke="transparent" points="148,-10 148,-30 168,-30 168,-10 148,-10"/>
<text text-anchor="start" x="171.629" y="-15.4" font-family="sans-serif" font-size="14.00" fill="#000000"> &#160;Declarations</text>
<polygon fill="#8dd3c7" stroke="transparent" points="261,-10 261,-30 281,-30 281,-10 261,-10"/>
<text text-anchor="start" x="284.7251" y="-15.4" font-family="sans-serif" font-size="14.00" fill="#000000"> &#160;Module</text>
<polygon fill="#80b1d3" stroke="transparent" points="347,-10 347,-30 367,-30 367,-10 347,-10"/>
<text text-anchor="start" x="370.7812" y="-15.4" font-family="sans-serif" font-size="14.00" fill="#000000"> &#160;Bootstrap</text>
<polygon fill="#fdb462" stroke="transparent" points="444,-10 444,-30 464,-30 464,-10 444,-10"/>
<text text-anchor="start" x="467.6732" y="-15.4" font-family="sans-serif" font-size="14.00" fill="#000000"> &#160;Providers</text>
<polygon fill="#fb8072" stroke="transparent" points="540,-10 540,-30 560,-30 560,-10 540,-10"/>
<text text-anchor="start" x="563.7258" y="-15.4" font-family="sans-serif" font-size="14.00" fill="#000000"> &#160;Exports</text>
<g id="clust1" class="cluster">
<title>cluster_AdminModule</title>
<polygon fill="none" stroke="#000000" stroke-dasharray="1,5" points="8,-70 8,-195 756,-195 756,-70 8,-70"/>
</g>
<g id="clust2" class="cluster">
<title>cluster_AdminModule_declarations</title>
<polygon fill="none" stroke="#000000" points="300,-78 300,-130 748,-130 748,-78 300,-78"/>
</g>
<g id="clust6" class="cluster">
<title>cluster_AdminModule_imports</title>
<polygon fill="none" stroke="#000000" points="16,-78 16,-130 292,-130 292,-78 16,-78"/>
</g>
<!-- AdminComponent -->
<g id="node1" class="node">
<title>AdminComponent</title>
<polygon fill="#ffffb3" stroke="#000000" points="740.2204,-122 619.7796,-122 619.7796,-86 740.2204,-86 740.2204,-122"/>
<text text-anchor="middle" x="680" y="-99.8" font-family="Times,serif" font-size="14.00" fill="#000000">AdminComponent</text>
</g>
<!-- AdminModule -->
<g id="node4" class="node">
<title>AdminModule</title>
<polygon fill="#8dd3c7" stroke="#000000" points="421.4386,-187 418.4386,-191 397.4386,-191 394.4386,-187 322.5614,-187 322.5614,-151 421.4386,-151 421.4386,-187"/>
<text text-anchor="middle" x="372" y="-164.8" font-family="Times,serif" font-size="14.00" fill="#000000">AdminModule</text>
</g>
<!-- AdminComponent&#45;&gt;AdminModule -->
<g id="edge1" class="edge">
<title>AdminComponent&#45;&gt;AdminModule</title>
<path fill="none" stroke="#000000" d="M680,-122.2843C680,-143.3211 680,-175 680,-175 680,-175 431.4855,-175 431.4855,-175"/>
<polygon fill="#000000" stroke="#000000" points="431.4856,-171.5001 421.4855,-175 431.4855,-178.5001 431.4856,-171.5001"/>
</g>
<!-- NavBarTopComponent -->
<g id="node2" class="node">
<title>NavBarTopComponent</title>
<polygon fill="#ffffb3" stroke="#000000" points="601.9186,-122 454.0814,-122 454.0814,-86 601.9186,-86 601.9186,-122"/>
<text text-anchor="middle" x="528" y="-99.8" font-family="Times,serif" font-size="14.00" fill="#000000">NavBarTopComponent</text>
</g>
<!-- NavBarTopComponent&#45;&gt;AdminModule -->
<g id="edge2" class="edge">
<title>NavBarTopComponent&#45;&gt;AdminModule</title>
<path fill="none" stroke="#000000" d="M528,-122.0225C528,-139.3734 528,-163 528,-163 528,-163 431.3594,-163 431.3594,-163"/>
<polygon fill="#000000" stroke="#000000" points="431.3594,-159.5001 421.3594,-163 431.3593,-166.5001 431.3594,-159.5001"/>
</g>
<!-- NavLeftComponent -->
<g id="node3" class="node">
<title>NavLeftComponent</title>
<polygon fill="#ffffb3" stroke="#000000" points="435.972,-122 308.028,-122 308.028,-86 435.972,-86 435.972,-122"/>
<text text-anchor="middle" x="372" y="-99.8" font-family="Times,serif" font-size="14.00" fill="#000000">NavLeftComponent</text>
</g>
<!-- NavLeftComponent&#45;&gt;AdminModule -->
<g id="edge3" class="edge">
<title>NavLeftComponent&#45;&gt;AdminModule</title>
<path fill="none" stroke="#000000" d="M372,-122.1061C372,-122.1061 372,-140.991 372,-140.991"/>
<polygon fill="#000000" stroke="#000000" points="368.5001,-140.9909 372,-150.991 375.5001,-140.991 368.5001,-140.9909"/>
</g>
<!-- AdminRoutingModule -->
<g id="node5" class="node">
<title>AdminRoutingModule</title>
<polygon fill="#8dd3c7" stroke="#000000" points="283.5561,-122 280.5561,-126 259.5561,-126 256.5561,-122 140.4439,-122 140.4439,-86 283.5561,-86 283.5561,-122"/>
<text text-anchor="middle" x="212" y="-99.8" font-family="Times,serif" font-size="14.00" fill="#000000">AdminRoutingModule</text>
</g>
<!-- AdminRoutingModule&#45;&gt;AdminModule -->
<g id="edge4" class="edge">
<title>AdminRoutingModule&#45;&gt;AdminModule</title>
<path fill="none" stroke="#000000" d="M212,-122.0225C212,-139.3734 212,-163 212,-163 212,-163 312.6892,-163 312.6892,-163"/>
<polygon fill="#000000" stroke="#000000" points="312.6892,-166.5001 322.6892,-163 312.6891,-159.5001 312.6892,-166.5001"/>
</g>
<!-- SharedModule -->
<g id="node6" class="node">
<title>SharedModule</title>
<polygon fill="#8dd3c7" stroke="#000000" points="122.4231,-122 119.4231,-126 98.4231,-126 95.4231,-122 23.5769,-122 23.5769,-86 122.4231,-86 122.4231,-122"/>
<text text-anchor="middle" x="73" y="-99.8" font-family="Times,serif" font-size="14.00" fill="#000000">SharedModule</text>
</g>
<!-- SharedModule&#45;&gt;AdminModule -->
<g id="edge5" class="edge">
<title>SharedModule&#45;&gt;AdminModule</title>
<path fill="none" stroke="#000000" d="M73,-122.2843C73,-143.3211 73,-175 73,-175 73,-175 312.6262,-175 312.6262,-175"/>
<polygon fill="#000000" stroke="#000000" points="312.6263,-178.5001 322.6262,-175 312.6262,-171.5001 312.6263,-178.5001"/>
</g>
</g>
</svg>
