<?xml version="1.0" encoding="UTF-8" standalone="no"?>
<!DOCTYPE svg PUBLIC "-//W3C//DTD SVG 1.1//EN"
 "http://www.w3.org/Graphics/SVG/1.1/DTD/svg11.dtd">
<!-- Generated by graphviz version 2.40.1 (20161225.0304)
 -->
<!-- Title: dependencies Pages: 1 -->
<svg width="1044pt" height="211pt"
 viewBox="0.00 0.00 1044.00 211.00" xmlns="http://www.w3.org/2000/svg" xmlns:xlink="http://www.w3.org/1999/xlink">
<g id="graph0" class="graph" transform="scale(1 1) rotate(0) translate(4 207)">
<title>dependencies</title>
<polygon fill="#ffffff" stroke="transparent" points="-4,4 -4,-207 1040,-207 1040,4 -4,4"/>
<text text-anchor="start" x="497.0091" y="-42.4" font-family="sans-serif" font-weight="bold" font-size="14.00" fill="#000000">Legend</text>
<polygon fill="#ffffb3" stroke="transparent" points="284,-10 284,-30 304,-30 304,-10 284,-10"/>
<text text-anchor="start" x="307.629" y="-15.4" font-family="sans-serif" font-size="14.00" fill="#000000"> &#160;Declarations</text>
<polygon fill="#8dd3c7" stroke="transparent" points="397,-10 397,-30 417,-30 417,-10 397,-10"/>
<text text-anchor="start" x="420.7251" y="-15.4" font-family="sans-serif" font-size="14.00" fill="#000000"> &#160;Module</text>
<polygon fill="#80b1d3" stroke="transparent" points="483,-10 483,-30 503,-30 503,-10 483,-10"/>
<text text-anchor="start" x="506.7812" y="-15.4" font-family="sans-serif" font-size="14.00" fill="#000000"> &#160;Bootstrap</text>
<polygon fill="#fdb462" stroke="transparent" points="580,-10 580,-30 600,-30 600,-10 580,-10"/>
<text text-anchor="start" x="603.6732" y="-15.4" font-family="sans-serif" font-size="14.00" fill="#000000"> &#160;Providers</text>
<polygon fill="#fb8072" stroke="transparent" points="676,-10 676,-30 696,-30 696,-10 676,-10"/>
<text text-anchor="start" x="699.7258" y="-15.4" font-family="sans-serif" font-size="14.00" fill="#000000"> &#160;Exports</text>
<g id="clust1" class="cluster">
<title>cluster_LandingModule</title>
<polygon fill="none" stroke="#000000" stroke-dasharray="1,5" points="8,-70 8,-195 1028,-195 1028,-70 8,-70"/>
</g>
<g id="clust2" class="cluster">
<title>cluster_LandingModule_declarations</title>
<polygon fill="none" stroke="#000000" points="308,-78 308,-130 1020,-130 1020,-78 308,-78"/>
</g>
<g id="clust8" class="cluster">
<title>cluster_LandingModule_imports</title>
<polygon fill="none" stroke="#000000" points="16,-78 16,-130 300,-130 300,-78 16,-78"/>
</g>
<!-- HomeComponent -->
<g id="node1" class="node">
<title>HomeComponent</title>
<polygon fill="#ffffb3" stroke="#000000" points="1011.5451,-122 896.4549,-122 896.4549,-86 1011.5451,-86 1011.5451,-122"/>
<text text-anchor="middle" x="954" y="-99.8" font-family="Times,serif" font-size="14.00" fill="#000000">HomeComponent</text>
</g>
<!-- LandingModule -->
<g id="node6" class="node">
<title>LandingModule</title>
<polygon fill="#8dd3c7" stroke="#000000" points="592.2078,-187 589.2078,-191 568.2078,-191 565.2078,-187 485.7922,-187 485.7922,-151 592.2078,-151 592.2078,-187"/>
<text text-anchor="middle" x="539" y="-164.8" font-family="Times,serif" font-size="14.00" fill="#000000">LandingModule</text>
</g>
<!-- HomeComponent&#45;&gt;LandingModule -->
<g id="edge1" class="edge">
<title>HomeComponent&#45;&gt;LandingModule</title>
<path fill="none" stroke="#000000" d="M954,-122.2921C954,-144.2057 954,-178 954,-178 954,-178 602.4044,-178 602.4044,-178"/>
<polygon fill="#000000" stroke="#000000" points="602.4044,-174.5001 592.4044,-178 602.4044,-181.5001 602.4044,-174.5001"/>
</g>
<!-- LandingComponent -->
<g id="node2" class="node">
<title>LandingComponent</title>
<polygon fill="#ffffb3" stroke="#000000" points="877.9902,-122 750.0098,-122 750.0098,-86 877.9902,-86 877.9902,-122"/>
<text text-anchor="middle" x="814" y="-99.8" font-family="Times,serif" font-size="14.00" fill="#000000">LandingComponent</text>
</g>
<!-- LandingComponent&#45;&gt;LandingModule -->
<g id="edge2" class="edge">
<title>LandingComponent&#45;&gt;LandingModule</title>
<path fill="none" stroke="#000000" d="M814,-122.1061C814,-141.3391 814,-169 814,-169 814,-169 602.3488,-169 602.3488,-169"/>
<polygon fill="#000000" stroke="#000000" points="602.3489,-165.5001 592.3488,-169 602.3488,-172.5001 602.3489,-165.5001"/>
</g>
<!-- MapsComponent -->
<g id="node3" class="node">
<title>MapsComponent</title>
<polygon fill="#ffffb3" stroke="#000000" points="732.437,-122 619.563,-122 619.563,-86 732.437,-86 732.437,-122"/>
<text text-anchor="middle" x="676" y="-99.8" font-family="Times,serif" font-size="14.00" fill="#000000">MapsComponent</text>
</g>
<!-- MapsComponent&#45;&gt;LandingModule -->
<g id="edge3" class="edge">
<title>MapsComponent&#45;&gt;LandingModule</title>
<path fill="none" stroke="#000000" d="M676,-122.027C676,-138.3976 676,-160 676,-160 676,-160 602.3601,-160 602.3601,-160"/>
<polygon fill="#000000" stroke="#000000" points="602.3601,-156.5001 592.3601,-160 602.36,-163.5001 602.3601,-156.5001"/>
</g>
<!-- NavBarComponent -->
<g id="node4" class="node">
<title>NavBarComponent</title>
<polygon fill="#ffffb3" stroke="#000000" points="601.3655,-122 476.6345,-122 476.6345,-86 601.3655,-86 601.3655,-122"/>
<text text-anchor="middle" x="539" y="-99.8" font-family="Times,serif" font-size="14.00" fill="#000000">NavBarComponent</text>
</g>
<!-- NavBarComponent&#45;&gt;LandingModule -->
<g id="edge4" class="edge">
<title>NavBarComponent&#45;&gt;LandingModule</title>
<path fill="none" stroke="#000000" d="M539,-122.1061C539,-122.1061 539,-140.991 539,-140.991"/>
<polygon fill="#000000" stroke="#000000" points="535.5001,-140.9909 539,-150.991 542.5001,-140.991 535.5001,-140.9909"/>
</g>
<!-- RepositoryComponent -->
<g id="node5" class="node">
<title>RepositoryComponent</title>
<polygon fill="#ffffb3" stroke="#000000" points="458.2702,-122 315.7298,-122 315.7298,-86 458.2702,-86 458.2702,-122"/>
<text text-anchor="middle" x="387" y="-99.8" font-family="Times,serif" font-size="14.00" fill="#000000">RepositoryComponent</text>
</g>
<!-- RepositoryComponent&#45;&gt;LandingModule -->
<g id="edge5" class="edge">
<title>RepositoryComponent&#45;&gt;LandingModule</title>
<path fill="none" stroke="#000000" d="M387,-122.027C387,-138.3976 387,-160 387,-160 387,-160 475.8378,-160 475.8378,-160"/>
<polygon fill="#000000" stroke="#000000" points="475.8378,-163.5001 485.8378,-160 475.8377,-156.5001 475.8378,-163.5001"/>
</g>
<!-- LandingRoutingModule -->
<g id="node7" class="node">
<title>LandingRoutingModule</title>
<polygon fill="#8dd3c7" stroke="#000000" points="291.8258,-122 288.8258,-126 267.8258,-126 264.8258,-122 140.1742,-122 140.1742,-86 291.8258,-86 291.8258,-122"/>
<text text-anchor="middle" x="216" y="-99.8" font-family="Times,serif" font-size="14.00" fill="#000000">LandingRoutingModule</text>
</g>
<!-- LandingRoutingModule&#45;&gt;LandingModule -->
<g id="edge6" class="edge">
<title>LandingRoutingModule&#45;&gt;LandingModule</title>
<path fill="none" stroke="#000000" d="M216,-122.1061C216,-141.3391 216,-169 216,-169 216,-169 475.6631,-169 475.6631,-169"/>
<polygon fill="#000000" stroke="#000000" points="475.6632,-172.5001 485.6631,-169 475.6631,-165.5001 475.6632,-172.5001"/>
</g>
<!-- SharedModule -->
<g id="node8" class="node">
<title>SharedModule</title>
<polygon fill="#8dd3c7" stroke="#000000" points="122.4231,-122 119.4231,-126 98.4231,-126 95.4231,-122 23.5769,-122 23.5769,-86 122.4231,-86 122.4231,-122"/>
<text text-anchor="middle" x="73" y="-99.8" font-family="Times,serif" font-size="14.00" fill="#000000">SharedModule</text>
</g>
<!-- SharedModule&#45;&gt;LandingModule -->
<g id="edge7" class="edge">
<title>SharedModule&#45;&gt;LandingModule</title>
<path fill="none" stroke="#000000" d="M73,-122.2921C73,-144.2057 73,-178 73,-178 73,-178 475.5439,-178 475.5439,-178"/>
<polygon fill="#000000" stroke="#000000" points="475.5439,-181.5001 485.5439,-178 475.5438,-174.5001 475.5439,-181.5001"/>
</g>
</g>
</svg>
