<?xml version="1.0" encoding="UTF-8" standalone="no"?>
<!DOCTYPE svg PUBLIC "-//W3C//DTD SVG 1.1//EN"
 "http://www.w3.org/Graphics/SVG/1.1/DTD/svg11.dtd">
<!-- Generated by graphviz version 2.40.1 (20161225.0304)
 -->
<!-- Title: dependencies Pages: 1 -->
<svg width="603pt" height="211pt"
 viewBox="0.00 0.00 603.00 211.00" xmlns="http://www.w3.org/2000/svg" xmlns:xlink="http://www.w3.org/1999/xlink">
<g id="graph0" class="graph" transform="scale(1 1) rotate(0) translate(4 207)">
<title>dependencies</title>
<polygon fill="#ffffff" stroke="transparent" points="-4,4 -4,-207 599,-207 599,4 -4,4"/>
<text text-anchor="start" x="276.5091" y="-42.4" font-family="sans-serif" font-weight="bold" font-size="14.00" fill="#000000">Legend</text>
<polygon fill="#ffffb3" stroke="transparent" points="63.5,-10 63.5,-30 83.5,-30 83.5,-10 63.5,-10"/>
<text text-anchor="start" x="87.129" y="-15.4" font-family="sans-serif" font-size="14.00" fill="#000000"> &#160;Declarations</text>
<polygon fill="#8dd3c7" stroke="transparent" points="176.5,-10 176.5,-30 196.5,-30 196.5,-10 176.5,-10"/>
<text text-anchor="start" x="200.2251" y="-15.4" font-family="sans-serif" font-size="14.00" fill="#000000"> &#160;Module</text>
<polygon fill="#80b1d3" stroke="transparent" points="262.5,-10 262.5,-30 282.5,-30 282.5,-10 262.5,-10"/>
<text text-anchor="start" x="286.2812" y="-15.4" font-family="sans-serif" font-size="14.00" fill="#000000"> &#160;Bootstrap</text>
<polygon fill="#fdb462" stroke="transparent" points="359.5,-10 359.5,-30 379.5,-30 379.5,-10 359.5,-10"/>
<text text-anchor="start" x="383.1732" y="-15.4" font-family="sans-serif" font-size="14.00" fill="#000000"> &#160;Providers</text>
<polygon fill="#fb8072" stroke="transparent" points="455.5,-10 455.5,-30 475.5,-30 475.5,-10 455.5,-10"/>
<text text-anchor="start" x="479.2258" y="-15.4" font-family="sans-serif" font-size="14.00" fill="#000000"> &#160;Exports</text>
<g id="clust1" class="cluster">
<title>cluster_LandingModule</title>
<polygon fill="none" stroke="#000000" stroke-dasharray="1,5" points="8,-70 8,-195 587,-195 587,-70 8,-70"/>
</g>
<g id="clust2" class="cluster">
<title>cluster_LandingModule_declarations</title>
<polygon fill="none" stroke="#000000" points="308,-78 308,-130 579,-130 579,-78 308,-78"/>
</g>
<g id="clust5" class="cluster">
<title>cluster_LandingModule_imports</title>
<polygon fill="none" stroke="#000000" points="16,-78 16,-130 300,-130 300,-78 16,-78"/>
</g>
<!-- MapsComponent -->
<g id="node1" class="node">
<title>MapsComponent</title>
<polygon fill="#ffffb3" stroke="#000000" points="571.437,-122 458.563,-122 458.563,-86 571.437,-86 571.437,-122"/>
<text text-anchor="middle" x="515" y="-99.8" font-family="Times,serif" font-size="14.00" fill="#000000">MapsComponent</text>
</g>
<!-- LandingModule -->
<g id="node3" class="node">
<title>LandingModule</title>
<polygon fill="#8dd3c7" stroke="#000000" points="350.2078,-187 347.2078,-191 326.2078,-191 323.2078,-187 243.7922,-187 243.7922,-151 350.2078,-151 350.2078,-187"/>
<text text-anchor="middle" x="297" y="-164.8" font-family="Times,serif" font-size="14.00" fill="#000000">LandingModule</text>
</g>
<!-- MapsComponent&#45;&gt;LandingModule -->
<g id="edge1" class="edge">
<title>MapsComponent&#45;&gt;LandingModule</title>
<path fill="none" stroke="#000000" d="M515,-122.1061C515,-141.3391 515,-169 515,-169 515,-169 360.3288,-169 360.3288,-169"/>
<polygon fill="#000000" stroke="#000000" points="360.3288,-165.5001 350.3288,-169 360.3288,-172.5001 360.3288,-165.5001"/>
</g>
<!-- NavBarComponent -->
<g id="node2" class="node">
<title>NavBarComponent</title>
<polygon fill="#ffffb3" stroke="#000000" points="440.3655,-122 315.6345,-122 315.6345,-86 440.3655,-86 440.3655,-122"/>
<text text-anchor="middle" x="378" y="-99.8" font-family="Times,serif" font-size="14.00" fill="#000000">NavBarComponent</text>
</g>
<!-- NavBarComponent&#45;&gt;LandingModule -->
<g id="edge2" class="edge">
<title>NavBarComponent&#45;&gt;LandingModule</title>
<path fill="none" stroke="#000000" d="M332.8356,-122.1061C332.8356,-122.1061 332.8356,-140.991 332.8356,-140.991"/>
<polygon fill="#000000" stroke="#000000" points="329.3356,-140.9909 332.8356,-150.991 336.3356,-140.991 329.3356,-140.9909"/>
</g>
<!-- LandingRoutingModule -->
<g id="node4" class="node">
<title>LandingRoutingModule</title>
<polygon fill="#8dd3c7" stroke="#000000" points="291.8258,-122 288.8258,-126 267.8258,-126 264.8258,-122 140.1742,-122 140.1742,-86 291.8258,-86 291.8258,-122"/>
<text text-anchor="middle" x="216" y="-99.8" font-family="Times,serif" font-size="14.00" fill="#000000">LandingRoutingModule</text>
</g>
<!-- LandingRoutingModule&#45;&gt;LandingModule -->
<g id="edge3" class="edge">
<title>LandingRoutingModule&#45;&gt;LandingModule</title>
<path fill="none" stroke="#000000" d="M267.7795,-122.1061C267.7795,-122.1061 267.7795,-140.991 267.7795,-140.991"/>
<polygon fill="#000000" stroke="#000000" points="264.2795,-140.9909 267.7795,-150.991 271.2795,-140.991 264.2795,-140.9909"/>
</g>
<!-- SharedModule -->
<g id="node5" class="node">
<title>SharedModule</title>
<polygon fill="#8dd3c7" stroke="#000000" points="122.4231,-122 119.4231,-126 98.4231,-126 95.4231,-122 23.5769,-122 23.5769,-86 122.4231,-86 122.4231,-122"/>
<text text-anchor="middle" x="73" y="-99.8" font-family="Times,serif" font-size="14.00" fill="#000000">SharedModule</text>
</g>
<!-- SharedModule&#45;&gt;LandingModule -->
<g id="edge4" class="edge">
<title>SharedModule&#45;&gt;LandingModule</title>
<path fill="none" stroke="#000000" d="M73,-122.1061C73,-141.3391 73,-169 73,-169 73,-169 233.631,-169 233.631,-169"/>
<polygon fill="#000000" stroke="#000000" points="233.631,-172.5001 243.631,-169 233.631,-165.5001 233.631,-172.5001"/>
</g>
</g>
</svg>
