<?xml version="1.0" encoding="UTF-8" standalone="no"?>
<!DOCTYPE svg PUBLIC "-//W3C//DTD SVG 1.1//EN"
 "http://www.w3.org/Graphics/SVG/1.1/DTD/svg11.dtd">
<!-- Generated by graphviz version 2.40.1 (20161225.0304)
 -->
<!-- Title: dependencies Pages: 1 -->
<svg width="905pt" height="211pt"
 viewBox="0.00 0.00 905.00 211.00" xmlns="http://www.w3.org/2000/svg" xmlns:xlink="http://www.w3.org/1999/xlink">
<g id="graph0" class="graph" transform="scale(1 1) rotate(0) translate(4 207)">
<title>dependencies</title>
<polygon fill="#ffffff" stroke="transparent" points="-4,4 -4,-207 901,-207 901,4 -4,4"/>
<text text-anchor="start" x="427.5091" y="-42.4" font-family="sans-serif" font-weight="bold" font-size="14.00" fill="#000000">Legend</text>
<polygon fill="#ffffb3" stroke="transparent" points="214.5,-10 214.5,-30 234.5,-30 234.5,-10 214.5,-10"/>
<text text-anchor="start" x="238.129" y="-15.4" font-family="sans-serif" font-size="14.00" fill="#000000"> &#160;Declarations</text>
<polygon fill="#8dd3c7" stroke="transparent" points="327.5,-10 327.5,-30 347.5,-30 347.5,-10 327.5,-10"/>
<text text-anchor="start" x="351.2251" y="-15.4" font-family="sans-serif" font-size="14.00" fill="#000000"> &#160;Module</text>
<polygon fill="#80b1d3" stroke="transparent" points="413.5,-10 413.5,-30 433.5,-30 433.5,-10 413.5,-10"/>
<text text-anchor="start" x="437.2812" y="-15.4" font-family="sans-serif" font-size="14.00" fill="#000000"> &#160;Bootstrap</text>
<polygon fill="#fdb462" stroke="transparent" points="510.5,-10 510.5,-30 530.5,-30 530.5,-10 510.5,-10"/>
<text text-anchor="start" x="534.1732" y="-15.4" font-family="sans-serif" font-size="14.00" fill="#000000"> &#160;Providers</text>
<polygon fill="#fb8072" stroke="transparent" points="606.5,-10 606.5,-30 626.5,-30 626.5,-10 606.5,-10"/>
<text text-anchor="start" x="630.2258" y="-15.4" font-family="sans-serif" font-size="14.00" fill="#000000"> &#160;Exports</text>
<g id="clust1" class="cluster">
<title>cluster_AdminModule</title>
<polygon fill="none" stroke="#000000" stroke-dasharray="1,5" points="8,-70 8,-195 889,-195 889,-70 8,-70"/>
</g>
<g id="clust2" class="cluster">
<title>cluster_AdminModule_declarations</title>
<polygon fill="none" stroke="#000000" points="300,-78 300,-130 881,-130 881,-78 300,-78"/>
</g>
<g id="clust7" class="cluster">
<title>cluster_AdminModule_imports</title>
<polygon fill="none" stroke="#000000" points="16,-78 16,-130 292,-130 292,-78 16,-78"/>
</g>
<!-- AdminComponent -->
<g id="node1" class="node">
<title>AdminComponent</title>
<polygon fill="#ffffb3" stroke="#000000" points="873.2204,-122 752.7796,-122 752.7796,-86 873.2204,-86 873.2204,-122"/>
<text text-anchor="middle" x="813" y="-99.8" font-family="Times,serif" font-size="14.00" fill="#000000">AdminComponent</text>
</g>
<!-- AdminModule -->
<g id="node5" class="node">
<title>AdminModule</title>
<polygon fill="#8dd3c7" stroke="#000000" points="499.4386,-187 496.4386,-191 475.4386,-191 472.4386,-187 400.5614,-187 400.5614,-151 499.4386,-151 499.4386,-187"/>
<text text-anchor="middle" x="450" y="-164.8" font-family="Times,serif" font-size="14.00" fill="#000000">AdminModule</text>
</g>
<!-- AdminComponent&#45;&gt;AdminModule -->
<g id="edge1" class="edge">
<title>AdminComponent&#45;&gt;AdminModule</title>
<path fill="none" stroke="#000000" d="M813,-122.2843C813,-143.3211 813,-175 813,-175 813,-175 509.3336,-175 509.3336,-175"/>
<polygon fill="#000000" stroke="#000000" points="509.3336,-171.5001 499.3336,-175 509.3335,-178.5001 509.3336,-171.5001"/>
</g>
<!-- HomeComponent -->
<g id="node2" class="node">
<title>HomeComponent</title>
<polygon fill="#ffffb3" stroke="#000000" points="734.5451,-122 619.4549,-122 619.4549,-86 734.5451,-86 734.5451,-122"/>
<text text-anchor="middle" x="677" y="-99.8" font-family="Times,serif" font-size="14.00" fill="#000000">HomeComponent</text>
</g>
<!-- HomeComponent&#45;&gt;AdminModule -->
<g id="edge2" class="edge">
<title>HomeComponent&#45;&gt;AdminModule</title>
<path fill="none" stroke="#000000" d="M677,-122.0225C677,-139.3734 677,-163 677,-163 677,-163 509.2556,-163 509.2556,-163"/>
<polygon fill="#000000" stroke="#000000" points="509.2557,-159.5001 499.2556,-163 509.2556,-166.5001 509.2557,-159.5001"/>
</g>
<!-- NavBarTopComponent -->
<g id="node3" class="node">
<title>NavBarTopComponent</title>
<polygon fill="#ffffb3" stroke="#000000" points="601.9186,-122 454.0814,-122 454.0814,-86 601.9186,-86 601.9186,-122"/>
<text text-anchor="middle" x="528" y="-99.8" font-family="Times,serif" font-size="14.00" fill="#000000">NavBarTopComponent</text>
</g>
<!-- NavBarTopComponent&#45;&gt;AdminModule -->
<g id="edge3" class="edge">
<title>NavBarTopComponent&#45;&gt;AdminModule</title>
<path fill="none" stroke="#000000" d="M476.7549,-122.1061C476.7549,-122.1061 476.7549,-140.991 476.7549,-140.991"/>
<polygon fill="#000000" stroke="#000000" points="473.255,-140.9909 476.7549,-150.991 480.255,-140.991 473.255,-140.9909"/>
</g>
<!-- NavLeftComponent -->
<g id="node4" class="node">
<title>NavLeftComponent</title>
<polygon fill="#ffffb3" stroke="#000000" points="435.972,-122 308.028,-122 308.028,-86 435.972,-86 435.972,-122"/>
<text text-anchor="middle" x="372" y="-99.8" font-family="Times,serif" font-size="14.00" fill="#000000">NavLeftComponent</text>
</g>
<!-- NavLeftComponent&#45;&gt;AdminModule -->
<g id="edge4" class="edge">
<title>NavLeftComponent&#45;&gt;AdminModule</title>
<path fill="none" stroke="#000000" d="M418.3836,-122.1061C418.3836,-122.1061 418.3836,-140.991 418.3836,-140.991"/>
<polygon fill="#000000" stroke="#000000" points="414.8837,-140.9909 418.3836,-150.991 421.8837,-140.991 414.8837,-140.9909"/>
</g>
<!-- AdminRoutingModule -->
<g id="node6" class="node">
<title>AdminRoutingModule</title>
<polygon fill="#8dd3c7" stroke="#000000" points="283.5561,-122 280.5561,-126 259.5561,-126 256.5561,-122 140.4439,-122 140.4439,-86 283.5561,-86 283.5561,-122"/>
<text text-anchor="middle" x="212" y="-99.8" font-family="Times,serif" font-size="14.00" fill="#000000">AdminRoutingModule</text>
</g>
<!-- AdminRoutingModule&#45;&gt;AdminModule -->
<g id="edge5" class="edge">
<title>AdminRoutingModule&#45;&gt;AdminModule</title>
<path fill="none" stroke="#000000" d="M212,-122.0225C212,-139.3734 212,-163 212,-163 212,-163 390.6862,-163 390.6862,-163"/>
<polygon fill="#000000" stroke="#000000" points="390.6863,-166.5001 400.6862,-163 390.6862,-159.5001 390.6863,-166.5001"/>
</g>
<!-- SharedModule -->
<g id="node7" class="node">
<title>SharedModule</title>
<polygon fill="#8dd3c7" stroke="#000000" points="122.4231,-122 119.4231,-126 98.4231,-126 95.4231,-122 23.5769,-122 23.5769,-86 122.4231,-86 122.4231,-122"/>
<text text-anchor="middle" x="73" y="-99.8" font-family="Times,serif" font-size="14.00" fill="#000000">SharedModule</text>
</g>
<!-- SharedModule&#45;&gt;AdminModule -->
<g id="edge6" class="edge">
<title>SharedModule&#45;&gt;AdminModule</title>
<path fill="none" stroke="#000000" d="M73,-122.2843C73,-143.3211 73,-175 73,-175 73,-175 390.7138,-175 390.7138,-175"/>
<polygon fill="#000000" stroke="#000000" points="390.7139,-178.5001 400.7138,-175 390.7138,-171.5001 390.7139,-178.5001"/>
</g>
</g>
</svg>
