<?xml version="1.0" encoding="UTF-8" standalone="no"?>
<!DOCTYPE svg PUBLIC "-//W3C//DTD SVG 1.1//EN"
 "http://www.w3.org/Graphics/SVG/1.1/DTD/svg11.dtd">
<!-- Generated by graphviz version 2.40.1 (20161225.0304)
 -->
<!-- Title: dependencies Pages: 1 -->
<svg width="698pt" height="331pt"
 viewBox="0.00 0.00 698.00 330.59" xmlns="http://www.w3.org/2000/svg" xmlns:xlink="http://www.w3.org/1999/xlink">
<g id="graph0" class="graph" transform="scale(1 1) rotate(0) translate(4 326.5901)">
<title>dependencies</title>
<polygon fill="#ffffff" stroke="transparent" points="-4,4 -4,-326.5901 694,-326.5901 694,4 -4,4"/>
<text text-anchor="start" x="324.0091" y="-42.4" font-family="sans-serif" font-weight="bold" font-size="14.00" fill="#000000">Legend</text>
<polygon fill="#ffffb3" stroke="transparent" points="111,-10 111,-30 131,-30 131,-10 111,-10"/>
<text text-anchor="start" x="134.629" y="-15.4" font-family="sans-serif" font-size="14.00" fill="#000000"> &#160;Declarations</text>
<polygon fill="#8dd3c7" stroke="transparent" points="224,-10 224,-30 244,-30 244,-10 224,-10"/>
<text text-anchor="start" x="247.7251" y="-15.4" font-family="sans-serif" font-size="14.00" fill="#000000"> &#160;Module</text>
<polygon fill="#80b1d3" stroke="transparent" points="310,-10 310,-30 330,-30 330,-10 310,-10"/>
<text text-anchor="start" x="333.7812" y="-15.4" font-family="sans-serif" font-size="14.00" fill="#000000"> &#160;Bootstrap</text>
<polygon fill="#fdb462" stroke="transparent" points="407,-10 407,-30 427,-30 427,-10 407,-10"/>
<text text-anchor="start" x="430.6732" y="-15.4" font-family="sans-serif" font-size="14.00" fill="#000000"> &#160;Providers</text>
<polygon fill="#fb8072" stroke="transparent" points="503,-10 503,-30 523,-30 523,-10 503,-10"/>
<text text-anchor="start" x="526.7258" y="-15.4" font-family="sans-serif" font-size="14.00" fill="#000000"> &#160;Exports</text>
<g id="clust1" class="cluster">
<title>cluster_GraphQLModule</title>
<polygon fill="none" stroke="#000000" stroke-dasharray="1,5" points="8,-70 8,-314.5901 682,-314.5901 682,-70 8,-70"/>
</g>
<g id="clust4" class="cluster">
<title>cluster_GraphQLModule_exports</title>
<polygon fill="none" stroke="#000000" points="217,-254.5901 217,-306.5901 467,-306.5901 467,-254.5901 217,-254.5901"/>
</g>
<g id="clust6" class="cluster">
<title>cluster_GraphQLModule_providers</title>
<polygon fill="none" stroke="#000000" points="16,-78 16,-176.5901 674,-176.5901 674,-78 16,-78"/>
</g>
<!-- ApolloModule  -->
<g id="node1" class="node">
<title>ApolloModule </title>
<polygon fill="#fb8072" stroke="#000000" points="458.9376,-298.5901 357.0624,-298.5901 357.0624,-262.5901 458.9376,-262.5901 458.9376,-298.5901"/>
<text text-anchor="middle" x="408" y="-276.3901" font-family="Times,serif" font-size="14.00" fill="#000000">ApolloModule </text>
</g>
<!-- HttpLinkModule  -->
<g id="node2" class="node">
<title>HttpLinkModule </title>
<polygon fill="#fb8072" stroke="#000000" points="339.3814,-298.5901 224.6186,-298.5901 224.6186,-262.5901 339.3814,-262.5901 339.3814,-298.5901"/>
<text text-anchor="middle" x="282" y="-276.3901" font-family="Times,serif" font-size="14.00" fill="#000000">HttpLinkModule </text>
</g>
<!-- GraphQLModule -->
<g id="node3" class="node">
<title>GraphQLModule</title>
<polygon fill="#8dd3c7" stroke="#000000" points="401.691,-233.5901 398.691,-237.5901 377.691,-237.5901 374.691,-233.5901 288.309,-233.5901 288.309,-197.5901 401.691,-197.5901 401.691,-233.5901"/>
<text text-anchor="middle" x="345" y="-211.3901" font-family="Times,serif" font-size="14.00" fill="#000000">GraphQLModule</text>
</g>
<!-- GraphQLModule&#45;&gt;ApolloModule  -->
<g id="edge1" class="edge">
<title>GraphQLModule&#45;&gt;ApolloModule </title>
<path fill="none" stroke="#000000" stroke-dasharray="5,2" d="M379.3133,-233.6962C379.3133,-233.6962 379.3133,-252.581 379.3133,-252.581"/>
<polygon fill="#000000" stroke="#000000" points="375.8134,-252.581 379.3133,-262.581 382.8134,-252.5811 375.8134,-252.581"/>
</g>
<!-- GraphQLModule&#45;&gt;HttpLinkModule  -->
<g id="edge2" class="edge">
<title>GraphQLModule&#45;&gt;HttpLinkModule </title>
<path fill="none" stroke="#000000" stroke-dasharray="5,2" d="M313.7975,-233.6962C313.7975,-233.6962 313.7975,-252.581 313.7975,-252.581"/>
<polygon fill="#000000" stroke="#000000" points="310.2976,-252.581 313.7975,-262.581 317.2976,-252.5811 310.2976,-252.581"/>
</g>
<!-- {
 &#160;&#160;&#160;provide: APOLLO_OPTIONS, useFactory: createApollo, deps: [HttpLink],
} -->
<g id="node4" class="node">
<title>{
 &#160;&#160;&#160;provide: APOLLO_OPTIONS, useFactory: createApollo, deps: [HttpLink],
}</title>
<ellipse fill="#fdb462" stroke="#000000" cx="345" cy="-127.295" rx="320.734" ry="41.0911"/>
<text text-anchor="middle" x="345" y="-139.895" font-family="Times,serif" font-size="14.00" fill="#000000">{</text>
<text text-anchor="middle" x="345" y="-123.095" font-family="Times,serif" font-size="14.00" fill="#000000"> &#160;&#160;&#160;provide: APOLLO_OPTIONS, useFactory: createApollo, deps: [HttpLink],</text>
<text text-anchor="middle" x="345" y="-106.295" font-family="Times,serif" font-size="14.00" fill="#000000">}</text>
</g>
<!-- {
 &#160;&#160;&#160;provide: APOLLO_OPTIONS, useFactory: createApollo, deps: [HttpLink],
}&#45;&gt;GraphQLModule -->
<g id="edge3" class="edge">
<title>{
 &#160;&#160;&#160;provide: APOLLO_OPTIONS, useFactory: createApollo, deps: [HttpLink],
}&#45;&gt;GraphQLModule</title>
<path fill="none" stroke="#000000" d="M345,-168.5989C345,-168.5989 345,-187.2551 345,-187.2551"/>
<polygon fill="#000000" stroke="#000000" points="341.5001,-187.255 345,-197.2551 348.5001,-187.2551 341.5001,-187.255"/>
</g>
</g>
</svg>
