<?xml version="1.0" encoding="UTF-8" standalone="no"?>
<!DOCTYPE svg PUBLIC "-//W3C//DTD SVG 1.1//EN"
 "http://www.w3.org/Graphics/SVG/1.1/DTD/svg11.dtd">
<!-- Generated by graphviz version 2.40.1 (20161225.0304)
 -->
<!-- Title: dependencies Pages: 1 -->
<svg width="943pt" height="211pt"
 viewBox="0.00 0.00 943.00 211.00" xmlns="http://www.w3.org/2000/svg" xmlns:xlink="http://www.w3.org/1999/xlink">
<g id="graph0" class="graph" transform="scale(1 1) rotate(0) translate(4 207)">
<title>dependencies</title>
<polygon fill="#ffffff" stroke="transparent" points="-4,4 -4,-207 939,-207 939,4 -4,4"/>
<text text-anchor="start" x="446.5091" y="-42.4" font-family="sans-serif" font-weight="bold" font-size="14.00" fill="#000000">Legend</text>
<polygon fill="#ffffb3" stroke="transparent" points="233.5,-10 233.5,-30 253.5,-30 253.5,-10 233.5,-10"/>
<text text-anchor="start" x="257.129" y="-15.4" font-family="sans-serif" font-size="14.00" fill="#000000"> &#160;Declarations</text>
<polygon fill="#8dd3c7" stroke="transparent" points="346.5,-10 346.5,-30 366.5,-30 366.5,-10 346.5,-10"/>
<text text-anchor="start" x="370.2251" y="-15.4" font-family="sans-serif" font-size="14.00" fill="#000000"> &#160;Module</text>
<polygon fill="#80b1d3" stroke="transparent" points="432.5,-10 432.5,-30 452.5,-30 452.5,-10 432.5,-10"/>
<text text-anchor="start" x="456.2812" y="-15.4" font-family="sans-serif" font-size="14.00" fill="#000000"> &#160;Bootstrap</text>
<polygon fill="#fdb462" stroke="transparent" points="529.5,-10 529.5,-30 549.5,-30 549.5,-10 529.5,-10"/>
<text text-anchor="start" x="553.1732" y="-15.4" font-family="sans-serif" font-size="14.00" fill="#000000"> &#160;Providers</text>
<polygon fill="#fb8072" stroke="transparent" points="625.5,-10 625.5,-30 645.5,-30 645.5,-10 625.5,-10"/>
<text text-anchor="start" x="649.2258" y="-15.4" font-family="sans-serif" font-size="14.00" fill="#000000"> &#160;Exports</text>
<g id="clust1" class="cluster">
<title>cluster_AuthModule</title>
<polygon fill="none" stroke="#000000" stroke-dasharray="1,5" points="8,-70 8,-195 927,-195 927,-70 8,-70"/>
</g>
<g id="clust2" class="cluster">
<title>cluster_AuthModule_declarations</title>
<polygon fill="none" stroke="#000000" points="289,-78 289,-130 919,-130 919,-78 289,-78"/>
</g>
<g id="clust7" class="cluster">
<title>cluster_AuthModule_imports</title>
<polygon fill="none" stroke="#000000" points="16,-78 16,-130 281,-130 281,-78 16,-78"/>
</g>
<!-- LoginComponent -->
<g id="node1" class="node">
<title>LoginComponent</title>
<polygon fill="#ffffb3" stroke="#000000" points="911.2758,-122 796.7242,-122 796.7242,-86 911.2758,-86 911.2758,-122"/>
<text text-anchor="middle" x="854" y="-99.8" font-family="Times,serif" font-size="14.00" fill="#000000">LoginComponent</text>
</g>
<!-- AuthModule -->
<g id="node5" class="node">
<title>AuthModule</title>
<polygon fill="#8dd3c7" stroke="#000000" points="482.5482,-187 479.5482,-191 458.5482,-191 455.5482,-187 395.4518,-187 395.4518,-151 482.5482,-151 482.5482,-187"/>
<text text-anchor="middle" x="439" y="-164.8" font-family="Times,serif" font-size="14.00" fill="#000000">AuthModule</text>
</g>
<!-- LoginComponent&#45;&gt;AuthModule -->
<g id="edge1" class="edge">
<title>LoginComponent&#45;&gt;AuthModule</title>
<path fill="none" stroke="#000000" d="M854,-122.2843C854,-143.3211 854,-175 854,-175 854,-175 492.6279,-175 492.6279,-175"/>
<polygon fill="#000000" stroke="#000000" points="492.6279,-171.5001 482.6279,-175 492.6279,-178.5001 492.6279,-171.5001"/>
</g>
<!-- RequestResetComponent -->
<g id="node2" class="node">
<title>RequestResetComponent</title>
<polygon fill="#ffffb3" stroke="#000000" points="778.5351,-122 621.4649,-122 621.4649,-86 778.5351,-86 778.5351,-122"/>
<text text-anchor="middle" x="700" y="-99.8" font-family="Times,serif" font-size="14.00" fill="#000000">RequestResetComponent</text>
</g>
<!-- RequestResetComponent&#45;&gt;AuthModule -->
<g id="edge2" class="edge">
<title>RequestResetComponent&#45;&gt;AuthModule</title>
<path fill="none" stroke="#000000" d="M700,-122.0225C700,-139.3734 700,-163 700,-163 700,-163 492.6855,-163 492.6855,-163"/>
<polygon fill="#000000" stroke="#000000" points="492.6856,-159.5001 482.6855,-163 492.6855,-166.5001 492.6856,-159.5001"/>
</g>
<!-- ResponseResetComponent -->
<g id="node3" class="node">
<title>ResponseResetComponent</title>
<polygon fill="#ffffb3" stroke="#000000" points="603.0884,-122 436.9116,-122 436.9116,-86 603.0884,-86 603.0884,-122"/>
<text text-anchor="middle" x="520" y="-99.8" font-family="Times,serif" font-size="14.00" fill="#000000">ResponseResetComponent</text>
</g>
<!-- ResponseResetComponent&#45;&gt;AuthModule -->
<g id="edge3" class="edge">
<title>ResponseResetComponent&#45;&gt;AuthModule</title>
<path fill="none" stroke="#000000" d="M459.8647,-122.1061C459.8647,-122.1061 459.8647,-140.991 459.8647,-140.991"/>
<polygon fill="#000000" stroke="#000000" points="456.3647,-140.9909 459.8647,-150.991 463.3647,-140.991 456.3647,-140.9909"/>
</g>
<!-- SignupComponent -->
<g id="node4" class="node">
<title>SignupComponent</title>
<polygon fill="#ffffb3" stroke="#000000" points="418.5056,-122 297.4944,-122 297.4944,-86 418.5056,-86 418.5056,-122"/>
<text text-anchor="middle" x="358" y="-99.8" font-family="Times,serif" font-size="14.00" fill="#000000">SignupComponent</text>
</g>
<!-- SignupComponent&#45;&gt;AuthModule -->
<g id="edge4" class="edge">
<title>SignupComponent&#45;&gt;AuthModule</title>
<path fill="none" stroke="#000000" d="M406.8647,-122.1061C406.8647,-122.1061 406.8647,-140.991 406.8647,-140.991"/>
<polygon fill="#000000" stroke="#000000" points="403.3647,-140.9909 406.8647,-150.991 410.3647,-140.991 403.3647,-140.9909"/>
</g>
<!-- AuthRoutingModule -->
<g id="node6" class="node">
<title>AuthRoutingModule</title>
<polygon fill="#8dd3c7" stroke="#000000" points="273.1652,-122 270.1652,-126 249.1652,-126 246.1652,-122 140.8348,-122 140.8348,-86 273.1652,-86 273.1652,-122"/>
<text text-anchor="middle" x="207" y="-99.8" font-family="Times,serif" font-size="14.00" fill="#000000">AuthRoutingModule</text>
</g>
<!-- AuthRoutingModule&#45;&gt;AuthModule -->
<g id="edge5" class="edge">
<title>AuthRoutingModule&#45;&gt;AuthModule</title>
<path fill="none" stroke="#000000" d="M207,-122.0225C207,-139.3734 207,-163 207,-163 207,-163 385.3626,-163 385.3626,-163"/>
<polygon fill="#000000" stroke="#000000" points="385.3626,-166.5001 395.3626,-163 385.3625,-159.5001 385.3626,-166.5001"/>
</g>
<!-- SharedModule -->
<g id="node7" class="node">
<title>SharedModule</title>
<polygon fill="#8dd3c7" stroke="#000000" points="122.4231,-122 119.4231,-126 98.4231,-126 95.4231,-122 23.5769,-122 23.5769,-86 122.4231,-86 122.4231,-122"/>
<text text-anchor="middle" x="73" y="-99.8" font-family="Times,serif" font-size="14.00" fill="#000000">SharedModule</text>
</g>
<!-- SharedModule&#45;&gt;AuthModule -->
<g id="edge6" class="edge">
<title>SharedModule&#45;&gt;AuthModule</title>
<path fill="none" stroke="#000000" d="M73,-122.2843C73,-143.3211 73,-175 73,-175 73,-175 385.2154,-175 385.2154,-175"/>
<polygon fill="#000000" stroke="#000000" points="385.2154,-178.5001 395.2154,-175 385.2154,-171.5001 385.2154,-178.5001"/>
</g>
</g>
</svg>
