<?xml version="1.0" encoding="UTF-8" standalone="no"?>
<!DOCTYPE svg PUBLIC "-//W3C//DTD SVG 1.1//EN"
 "http://www.w3.org/Graphics/SVG/1.1/DTD/svg11.dtd">
<!-- Generated by graphviz version 2.40.1 (20161225.0304)
 -->
<!-- Title: dependencies Pages: 1 -->
<svg width="1233pt" height="211pt"
 viewBox="0.00 0.00 1233.00 211.00" xmlns="http://www.w3.org/2000/svg" xmlns:xlink="http://www.w3.org/1999/xlink">
<g id="graph0" class="graph" transform="scale(1 1) rotate(0) translate(4 207)">
<title>dependencies</title>
<polygon fill="#ffffff" stroke="transparent" points="-4,4 -4,-207 1229,-207 1229,4 -4,4"/>
<text text-anchor="start" x="591.5091" y="-42.4" font-family="sans-serif" font-weight="bold" font-size="14.00" fill="#000000">Legend</text>
<polygon fill="#ffffb3" stroke="transparent" points="378.5,-10 378.5,-30 398.5,-30 398.5,-10 378.5,-10"/>
<text text-anchor="start" x="402.129" y="-15.4" font-family="sans-serif" font-size="14.00" fill="#000000"> &#160;Declarations</text>
<polygon fill="#8dd3c7" stroke="transparent" points="491.5,-10 491.5,-30 511.5,-30 511.5,-10 491.5,-10"/>
<text text-anchor="start" x="515.2251" y="-15.4" font-family="sans-serif" font-size="14.00" fill="#000000"> &#160;Module</text>
<polygon fill="#80b1d3" stroke="transparent" points="577.5,-10 577.5,-30 597.5,-30 597.5,-10 577.5,-10"/>
<text text-anchor="start" x="601.2812" y="-15.4" font-family="sans-serif" font-size="14.00" fill="#000000"> &#160;Bootstrap</text>
<polygon fill="#fdb462" stroke="transparent" points="674.5,-10 674.5,-30 694.5,-30 694.5,-10 674.5,-10"/>
<text text-anchor="start" x="698.1732" y="-15.4" font-family="sans-serif" font-size="14.00" fill="#000000"> &#160;Providers</text>
<polygon fill="#fb8072" stroke="transparent" points="770.5,-10 770.5,-30 790.5,-30 790.5,-10 770.5,-10"/>
<text text-anchor="start" x="794.2258" y="-15.4" font-family="sans-serif" font-size="14.00" fill="#000000"> &#160;Exports</text>
<g id="clust1" class="cluster">
<title>cluster_AuthModule</title>
<polygon fill="none" stroke="#000000" stroke-dasharray="1,5" points="8,-70 8,-195 1217,-195 1217,-70 8,-70"/>
</g>
<g id="clust2" class="cluster">
<title>cluster_AuthModule_declarations</title>
<polygon fill="none" stroke="#000000" points="579,-78 579,-130 1209,-130 1209,-78 579,-78"/>
</g>
<g id="clust7" class="cluster">
<title>cluster_AuthModule_imports</title>
<polygon fill="none" stroke="#000000" points="306,-78 306,-130 571,-130 571,-78 306,-78"/>
</g>
<g id="clust10" class="cluster">
<title>cluster_AuthModule_providers</title>
<polygon fill="none" stroke="#000000" points="16,-78 16,-130 298,-130 298,-78 16,-78"/>
</g>
<!-- LoginComponent -->
<g id="node1" class="node">
<title>LoginComponent</title>
<polygon fill="#ffffb3" stroke="#000000" points="1201.2758,-122 1086.7242,-122 1086.7242,-86 1201.2758,-86 1201.2758,-122"/>
<text text-anchor="middle" x="1144" y="-99.8" font-family="Times,serif" font-size="14.00" fill="#000000">LoginComponent</text>
</g>
<!-- AuthModule -->
<g id="node5" class="node">
<title>AuthModule</title>
<polygon fill="#8dd3c7" stroke="#000000" points="615.5482,-187 612.5482,-191 591.5482,-191 588.5482,-187 528.4518,-187 528.4518,-151 615.5482,-151 615.5482,-187"/>
<text text-anchor="middle" x="572" y="-164.8" font-family="Times,serif" font-size="14.00" fill="#000000">AuthModule</text>
</g>
<!-- LoginComponent&#45;&gt;AuthModule -->
<g id="edge1" class="edge">
<title>LoginComponent&#45;&gt;AuthModule</title>
<path fill="none" stroke="#000000" d="M1144,-122.2921C1144,-144.2057 1144,-178 1144,-178 1144,-178 625.9341,-178 625.9341,-178"/>
<polygon fill="#000000" stroke="#000000" points="625.9341,-174.5001 615.9341,-178 625.9341,-181.5001 625.9341,-174.5001"/>
</g>
<!-- RequestResetComponent -->
<g id="node2" class="node">
<title>RequestResetComponent</title>
<polygon fill="#ffffb3" stroke="#000000" points="1068.5351,-122 911.4649,-122 911.4649,-86 1068.5351,-86 1068.5351,-122"/>
<text text-anchor="middle" x="990" y="-99.8" font-family="Times,serif" font-size="14.00" fill="#000000">RequestResetComponent</text>
</g>
<!-- RequestResetComponent&#45;&gt;AuthModule -->
<g id="edge2" class="edge">
<title>RequestResetComponent&#45;&gt;AuthModule</title>
<path fill="none" stroke="#000000" d="M990,-122.1061C990,-141.3391 990,-169 990,-169 990,-169 625.5504,-169 625.5504,-169"/>
<polygon fill="#000000" stroke="#000000" points="625.5504,-165.5001 615.5504,-169 625.5504,-172.5001 625.5504,-165.5001"/>
</g>
<!-- ResponseResetComponent -->
<g id="node3" class="node">
<title>ResponseResetComponent</title>
<polygon fill="#ffffb3" stroke="#000000" points="893.0884,-122 726.9116,-122 726.9116,-86 893.0884,-86 893.0884,-122"/>
<text text-anchor="middle" x="810" y="-99.8" font-family="Times,serif" font-size="14.00" fill="#000000">ResponseResetComponent</text>
</g>
<!-- ResponseResetComponent&#45;&gt;AuthModule -->
<g id="edge3" class="edge">
<title>ResponseResetComponent&#45;&gt;AuthModule</title>
<path fill="none" stroke="#000000" d="M810,-122.027C810,-138.3976 810,-160 810,-160 810,-160 625.6529,-160 625.6529,-160"/>
<polygon fill="#000000" stroke="#000000" points="625.6529,-156.5001 615.6529,-160 625.6528,-163.5001 625.6529,-156.5001"/>
</g>
<!-- SignupComponent -->
<g id="node4" class="node">
<title>SignupComponent</title>
<polygon fill="#ffffb3" stroke="#000000" points="708.5056,-122 587.4944,-122 587.4944,-86 708.5056,-86 708.5056,-122"/>
<text text-anchor="middle" x="648" y="-99.8" font-family="Times,serif" font-size="14.00" fill="#000000">SignupComponent</text>
</g>
<!-- SignupComponent&#45;&gt;AuthModule -->
<g id="edge4" class="edge">
<title>SignupComponent&#45;&gt;AuthModule</title>
<path fill="none" stroke="#000000" d="M601.6354,-122.1061C601.6354,-122.1061 601.6354,-140.991 601.6354,-140.991"/>
<polygon fill="#000000" stroke="#000000" points="598.1354,-140.9909 601.6354,-150.991 605.1354,-140.991 598.1354,-140.9909"/>
</g>
<!-- AuthRoutingModule -->
<g id="node6" class="node">
<title>AuthRoutingModule</title>
<polygon fill="#8dd3c7" stroke="#000000" points="563.1652,-122 560.1652,-126 539.1652,-126 536.1652,-122 430.8348,-122 430.8348,-86 563.1652,-86 563.1652,-122"/>
<text text-anchor="middle" x="497" y="-99.8" font-family="Times,serif" font-size="14.00" fill="#000000">AuthRoutingModule</text>
</g>
<!-- AuthRoutingModule&#45;&gt;AuthModule -->
<g id="edge5" class="edge">
<title>AuthRoutingModule&#45;&gt;AuthModule</title>
<path fill="none" stroke="#000000" d="M545.7795,-122.1061C545.7795,-122.1061 545.7795,-140.991 545.7795,-140.991"/>
<polygon fill="#000000" stroke="#000000" points="542.2795,-140.9909 545.7795,-150.991 549.2795,-140.991 542.2795,-140.9909"/>
</g>
<!-- SharedModule -->
<g id="node7" class="node">
<title>SharedModule</title>
<polygon fill="#8dd3c7" stroke="#000000" points="412.4231,-122 409.4231,-126 388.4231,-126 385.4231,-122 313.5769,-122 313.5769,-86 412.4231,-86 412.4231,-122"/>
<text text-anchor="middle" x="363" y="-99.8" font-family="Times,serif" font-size="14.00" fill="#000000">SharedModule</text>
</g>
<!-- SharedModule&#45;&gt;AuthModule -->
<g id="edge6" class="edge">
<title>SharedModule&#45;&gt;AuthModule</title>
<path fill="none" stroke="#000000" d="M363,-122.027C363,-138.3976 363,-160 363,-160 363,-160 518.4412,-160 518.4412,-160"/>
<polygon fill="#000000" stroke="#000000" points="518.4412,-163.5001 528.4412,-160 518.4411,-156.5001 518.4412,-163.5001"/>
</g>
<!-- AuthService -->
<g id="node8" class="node">
<title>AuthService</title>
<ellipse fill="#fdb462" stroke="#000000" cx="231" cy="-104" rx="59.1083" ry="18"/>
<text text-anchor="middle" x="231" y="-99.8" font-family="Times,serif" font-size="14.00" fill="#000000">AuthService</text>
</g>
<!-- AuthService&#45;&gt;AuthModule -->
<g id="edge7" class="edge">
<title>AuthService&#45;&gt;AuthModule</title>
<path fill="none" stroke="#000000" d="M231,-122.1061C231,-141.3391 231,-169 231,-169 231,-169 518.1183,-169 518.1183,-169"/>
<polygon fill="#000000" stroke="#000000" points="518.1183,-172.5001 528.1183,-169 518.1183,-165.5001 518.1183,-172.5001"/>
</g>
<!-- TokenService -->
<g id="node9" class="node">
<title>TokenService</title>
<ellipse fill="#fdb462" stroke="#000000" cx="89" cy="-104" rx="64.8273" ry="18"/>
<text text-anchor="middle" x="89" y="-99.8" font-family="Times,serif" font-size="14.00" fill="#000000">TokenService</text>
</g>
<!-- TokenService&#45;&gt;AuthModule -->
<g id="edge8" class="edge">
<title>TokenService&#45;&gt;AuthModule</title>
<path fill="none" stroke="#000000" d="M89,-122.2921C89,-144.2057 89,-178 89,-178 89,-178 518.2851,-178 518.2851,-178"/>
<polygon fill="#000000" stroke="#000000" points="518.2851,-181.5001 528.2851,-178 518.2851,-174.5001 518.2851,-181.5001"/>
</g>
</g>
</svg>
