<?xml version="1.0" encoding="UTF-8" standalone="no"?>
<!DOCTYPE svg PUBLIC "-//W3C//DTD SVG 1.1//EN"
 "http://www.w3.org/Graphics/SVG/1.1/DTD/svg11.dtd">
<!-- Generated by graphviz version 2.40.1 (20161225.0304)
 -->
<!-- Title: dependencies Pages: 1 -->
<svg width="1419pt" height="211pt"
 viewBox="0.00 0.00 1419.00 211.00" xmlns="http://www.w3.org/2000/svg" xmlns:xlink="http://www.w3.org/1999/xlink">
<g id="graph0" class="graph" transform="scale(1 1) rotate(0) translate(4 207)">
<title>dependencies</title>
<polygon fill="#ffffff" stroke="transparent" points="-4,4 -4,-207 1415,-207 1415,4 -4,4"/>
<text text-anchor="start" x="684.5091" y="-42.4" font-family="sans-serif" font-weight="bold" font-size="14.00" fill="#000000">Legend</text>
<polygon fill="#ffffb3" stroke="transparent" points="471.5,-10 471.5,-30 491.5,-30 491.5,-10 471.5,-10"/>
<text text-anchor="start" x="495.129" y="-15.4" font-family="sans-serif" font-size="14.00" fill="#000000"> &#160;Declarations</text>
<polygon fill="#8dd3c7" stroke="transparent" points="584.5,-10 584.5,-30 604.5,-30 604.5,-10 584.5,-10"/>
<text text-anchor="start" x="608.2251" y="-15.4" font-family="sans-serif" font-size="14.00" fill="#000000"> &#160;Module</text>
<polygon fill="#80b1d3" stroke="transparent" points="670.5,-10 670.5,-30 690.5,-30 690.5,-10 670.5,-10"/>
<text text-anchor="start" x="694.2812" y="-15.4" font-family="sans-serif" font-size="14.00" fill="#000000"> &#160;Bootstrap</text>
<polygon fill="#fdb462" stroke="transparent" points="767.5,-10 767.5,-30 787.5,-30 787.5,-10 767.5,-10"/>
<text text-anchor="start" x="791.1732" y="-15.4" font-family="sans-serif" font-size="14.00" fill="#000000"> &#160;Providers</text>
<polygon fill="#fb8072" stroke="transparent" points="863.5,-10 863.5,-30 883.5,-30 883.5,-10 863.5,-10"/>
<text text-anchor="start" x="887.2258" y="-15.4" font-family="sans-serif" font-size="14.00" fill="#000000"> &#160;Exports</text>
<g id="clust1" class="cluster">
<title>cluster_InstitutionModule</title>
<polygon fill="none" stroke="#000000" stroke-dasharray="1,5" points="8,-70 8,-195 1403,-195 1403,-70 8,-70"/>
</g>
<g id="clust2" class="cluster">
<title>cluster_InstitutionModule_declarations</title>
<polygon fill="none" stroke="#000000" points="318,-78 318,-130 1395,-130 1395,-78 318,-78"/>
</g>
<g id="clust8" class="cluster">
<title>cluster_InstitutionModule_imports</title>
<polygon fill="none" stroke="#000000" points="16,-78 16,-130 310,-130 310,-78 16,-78"/>
</g>
<!-- InstitutionCategoryComponent -->
<g id="node1" class="node">
<title>InstitutionCategoryComponent</title>
<polygon fill="#ffffb3" stroke="#000000" points="1387.2077,-122 1196.7923,-122 1196.7923,-86 1387.2077,-86 1387.2077,-122"/>
<text text-anchor="middle" x="1292" y="-99.8" font-family="Times,serif" font-size="14.00" fill="#000000">InstitutionCategoryComponent</text>
</g>
<!-- InstitutionModule -->
<g id="node6" class="node">
<title>InstitutionModule</title>
<polygon fill="#8dd3c7" stroke="#000000" points="736.608,-187 733.608,-191 712.608,-191 709.608,-187 619.392,-187 619.392,-151 736.608,-151 736.608,-187"/>
<text text-anchor="middle" x="678" y="-164.8" font-family="Times,serif" font-size="14.00" fill="#000000">InstitutionModule</text>
</g>
<!-- InstitutionCategoryComponent&#45;&gt;InstitutionModule -->
<g id="edge1" class="edge">
<title>InstitutionCategoryComponent&#45;&gt;InstitutionModule</title>
<path fill="none" stroke="#000000" d="M1292,-122.2921C1292,-144.2057 1292,-178 1292,-178 1292,-178 746.5948,-178 746.5948,-178"/>
<polygon fill="#000000" stroke="#000000" points="746.5948,-174.5001 736.5948,-178 746.5947,-181.5001 746.5948,-174.5001"/>
</g>
<!-- InstitutionHomeComponent -->
<g id="node2" class="node">
<title>InstitutionHomeComponent</title>
<polygon fill="#ffffb3" stroke="#000000" points="1178.6024,-122 1005.3976,-122 1005.3976,-86 1178.6024,-86 1178.6024,-122"/>
<text text-anchor="middle" x="1092" y="-99.8" font-family="Times,serif" font-size="14.00" fill="#000000">InstitutionHomeComponent</text>
</g>
<!-- InstitutionHomeComponent&#45;&gt;InstitutionModule -->
<g id="edge2" class="edge">
<title>InstitutionHomeComponent&#45;&gt;InstitutionModule</title>
<path fill="none" stroke="#000000" d="M1092,-122.1061C1092,-141.3391 1092,-169 1092,-169 1092,-169 746.8764,-169 746.8764,-169"/>
<polygon fill="#000000" stroke="#000000" points="746.8765,-165.5001 736.8764,-169 746.8764,-172.5001 746.8765,-165.5001"/>
</g>
<!-- InstitutionInfoComponent -->
<g id="node3" class="node">
<title>InstitutionInfoComponent</title>
<polygon fill="#ffffb3" stroke="#000000" points="987.2119,-122 824.7881,-122 824.7881,-86 987.2119,-86 987.2119,-122"/>
<text text-anchor="middle" x="906" y="-99.8" font-family="Times,serif" font-size="14.00" fill="#000000">InstitutionInfoComponent</text>
</g>
<!-- InstitutionInfoComponent&#45;&gt;InstitutionModule -->
<g id="edge3" class="edge">
<title>InstitutionInfoComponent&#45;&gt;InstitutionModule</title>
<path fill="none" stroke="#000000" d="M906,-122.027C906,-138.3976 906,-160 906,-160 906,-160 746.7157,-160 746.7157,-160"/>
<polygon fill="#000000" stroke="#000000" points="746.7157,-156.5001 736.7157,-160 746.7156,-163.5001 746.7157,-156.5001"/>
</g>
<!-- ModalFormInstitutionCategoryComponent -->
<g id="node4" class="node">
<title>ModalFormInstitutionCategoryComponent</title>
<polygon fill="#ffffb3" stroke="#000000" points="806.5912,-122 549.4088,-122 549.4088,-86 806.5912,-86 806.5912,-122"/>
<text text-anchor="middle" x="678" y="-99.8" font-family="Times,serif" font-size="14.00" fill="#000000">ModalFormInstitutionCategoryComponent</text>
</g>
<!-- ModalFormInstitutionCategoryComponent&#45;&gt;InstitutionModule -->
<g id="edge4" class="edge">
<title>ModalFormInstitutionCategoryComponent&#45;&gt;InstitutionModule</title>
<path fill="none" stroke="#000000" d="M678,-122.1061C678,-122.1061 678,-140.991 678,-140.991"/>
<polygon fill="#000000" stroke="#000000" points="674.5001,-140.9909 678,-150.991 681.5001,-140.991 674.5001,-140.9909"/>
</g>
<!-- ModalFormInstitutionComponent -->
<g id="node5" class="node">
<title>ModalFormInstitutionComponent</title>
<polygon fill="#ffffb3" stroke="#000000" points="531.7743,-122 326.2257,-122 326.2257,-86 531.7743,-86 531.7743,-122"/>
<text text-anchor="middle" x="429" y="-99.8" font-family="Times,serif" font-size="14.00" fill="#000000">ModalFormInstitutionComponent</text>
</g>
<!-- ModalFormInstitutionComponent&#45;&gt;InstitutionModule -->
<g id="edge5" class="edge">
<title>ModalFormInstitutionComponent&#45;&gt;InstitutionModule</title>
<path fill="none" stroke="#000000" d="M429,-122.027C429,-138.3976 429,-160 429,-160 429,-160 609.3058,-160 609.3058,-160"/>
<polygon fill="#000000" stroke="#000000" points="609.3058,-163.5001 619.3058,-160 609.3057,-156.5001 609.3058,-163.5001"/>
</g>
<!-- InstitutionRoutingModule -->
<g id="node7" class="node">
<title>InstitutionRoutingModule</title>
<polygon fill="#8dd3c7" stroke="#000000" points="302.226,-122 299.226,-126 278.226,-126 275.226,-122 139.774,-122 139.774,-86 302.226,-86 302.226,-122"/>
<text text-anchor="middle" x="221" y="-99.8" font-family="Times,serif" font-size="14.00" fill="#000000">InstitutionRoutingModule</text>
</g>
<!-- InstitutionRoutingModule&#45;&gt;InstitutionModule -->
<g id="edge6" class="edge">
<title>InstitutionRoutingModule&#45;&gt;InstitutionModule</title>
<path fill="none" stroke="#000000" d="M221,-122.1061C221,-141.3391 221,-169 221,-169 221,-169 609.1908,-169 609.1908,-169"/>
<polygon fill="#000000" stroke="#000000" points="609.1908,-172.5001 619.1908,-169 609.1908,-165.5001 609.1908,-172.5001"/>
</g>
<!-- SharedModule -->
<g id="node8" class="node">
<title>SharedModule</title>
<polygon fill="#8dd3c7" stroke="#000000" points="122.4231,-122 119.4231,-126 98.4231,-126 95.4231,-122 23.5769,-122 23.5769,-86 122.4231,-86 122.4231,-122"/>
<text text-anchor="middle" x="73" y="-99.8" font-family="Times,serif" font-size="14.00" fill="#000000">SharedModule</text>
</g>
<!-- SharedModule&#45;&gt;InstitutionModule -->
<g id="edge7" class="edge">
<title>SharedModule&#45;&gt;InstitutionModule</title>
<path fill="none" stroke="#000000" d="M73,-122.2921C73,-144.2057 73,-178 73,-178 73,-178 609.4403,-178 609.4403,-178"/>
<polygon fill="#000000" stroke="#000000" points="609.4404,-181.5001 619.4403,-178 609.4403,-174.5001 609.4404,-181.5001"/>
</g>
</g>
</svg>
