<?xml version="1.0" encoding="UTF-8" standalone="no"?>
<!DOCTYPE svg PUBLIC "-//W3C//DTD SVG 1.1//EN"
 "http://www.w3.org/Graphics/SVG/1.1/DTD/svg11.dtd">
<!-- Generated by graphviz version 2.40.1 (20161225.0304)
 -->
<!-- Title: dependencies Pages: 1 -->
<svg width="4371pt" height="360pt"
 viewBox="0.00 0.00 4371.00 360.00" xmlns="http://www.w3.org/2000/svg" xmlns:xlink="http://www.w3.org/1999/xlink">
<g id="graph0" class="graph" transform="scale(1 1) rotate(0) translate(4 356)">
<title>dependencies</title>
<polygon fill="#ffffff" stroke="transparent" points="-4,4 -4,-356 4367,-356 4367,4 -4,4"/>
<text text-anchor="start" x="2160.5091" y="-42.4" font-family="sans-serif" font-weight="bold" font-size="14.00" fill="#000000">Legend</text>
<polygon fill="#ffffb3" stroke="transparent" points="1947.5,-10 1947.5,-30 1967.5,-30 1967.5,-10 1947.5,-10"/>
<text text-anchor="start" x="1971.129" y="-15.4" font-family="sans-serif" font-size="14.00" fill="#000000"> &#160;Declarations</text>
<polygon fill="#8dd3c7" stroke="transparent" points="2060.5,-10 2060.5,-30 2080.5,-30 2080.5,-10 2060.5,-10"/>
<text text-anchor="start" x="2084.2251" y="-15.4" font-family="sans-serif" font-size="14.00" fill="#000000"> &#160;Module</text>
<polygon fill="#80b1d3" stroke="transparent" points="2146.5,-10 2146.5,-30 2166.5,-30 2166.5,-10 2146.5,-10"/>
<text text-anchor="start" x="2170.2812" y="-15.4" font-family="sans-serif" font-size="14.00" fill="#000000"> &#160;Bootstrap</text>
<polygon fill="#fdb462" stroke="transparent" points="2243.5,-10 2243.5,-30 2263.5,-30 2263.5,-10 2243.5,-10"/>
<text text-anchor="start" x="2267.1732" y="-15.4" font-family="sans-serif" font-size="14.00" fill="#000000"> &#160;Providers</text>
<polygon fill="#fb8072" stroke="transparent" points="2339.5,-10 2339.5,-30 2359.5,-30 2359.5,-10 2339.5,-10"/>
<text text-anchor="start" x="2363.2258" y="-15.4" font-family="sans-serif" font-size="14.00" fill="#000000"> &#160;Exports</text>
<g id="clust1" class="cluster">
<title>cluster_AdminModule</title>
<polygon fill="none" stroke="#000000" stroke-dasharray="1,5" points="8,-70 8,-206 890,-206 890,-70 8,-70"/>
</g>
<g id="clust2" class="cluster">
<title>cluster_AdminModule_declarations</title>
<polygon fill="none" stroke="#000000" points="16,-78 16,-130 598,-130 598,-78 16,-78"/>
</g>
<g id="clust7" class="cluster">
<title>cluster_AdminModule_imports</title>
<polygon fill="none" stroke="#000000" points="606,-78 606,-130 882,-130 882,-78 606,-78"/>
</g>
<g id="clust17" class="cluster">
<title>cluster_AppModule</title>
<polygon fill="none" stroke="#000000" stroke-dasharray="1,5" points="1296,-146 1296,-344 2111,-344 2111,-146 1296,-146"/>
</g>
<g id="clust18" class="cluster">
<title>cluster_AppModule_declarations</title>
<polygon fill="none" stroke="#000000" points="1798,-154 1798,-206 2103,-206 2103,-154 1798,-154"/>
</g>
<g id="clust21" class="cluster">
<title>cluster_AppModule_imports</title>
<polygon fill="none" stroke="#000000" points="1304,-154 1304,-206 1790,-206 1790,-154 1304,-154"/>
</g>
<g id="clust23" class="cluster">
<title>cluster_AppModule_bootstrap</title>
<polygon fill="none" stroke="#000000" points="1559,-284 1559,-336 1683,-336 1683,-284 1559,-284"/>
</g>
<g id="clust31" class="cluster">
<title>cluster_AuthModule</title>
<polygon fill="none" stroke="#000000" stroke-dasharray="1,5" points="898,-70 898,-138 1990,-138 1990,-70 898,-70"/>
</g>
<g id="clust32" class="cluster">
<title>cluster_AuthModule_declarations</title>
<polygon fill="none" stroke="#000000" points="1352,-78 1352,-130 1982,-130 1982,-78 1352,-78"/>
</g>
<g id="clust37" class="cluster">
<title>cluster_AuthModule_imports</title>
<polygon fill="none" stroke="#000000" points="1196,-78 1196,-130 1344,-130 1344,-78 1196,-78"/>
</g>
<g id="clust40" class="cluster">
<title>cluster_AuthModule_providers</title>
<polygon fill="none" stroke="#000000" points="906,-78 906,-130 1188,-130 1188,-78 906,-78"/>
</g>
<g id="clust59" class="cluster">
<title>cluster_InstitutionModule</title>
<polygon fill="none" stroke="#000000" stroke-dasharray="1,5" points="2119,-70 2119,-206 3364,-206 3364,-70 2119,-70"/>
</g>
<g id="clust60" class="cluster">
<title>cluster_InstitutionModule_declarations</title>
<polygon fill="none" stroke="#000000" points="2313,-78 2313,-130 3356,-130 3356,-78 2313,-78"/>
</g>
<g id="clust66" class="cluster">
<title>cluster_InstitutionModule_imports</title>
<polygon fill="none" stroke="#000000" points="2127,-78 2127,-130 2305,-130 2305,-78 2127,-78"/>
</g>
<g id="clust76" class="cluster">
<title>cluster_LandingModule</title>
<polygon fill="none" stroke="#000000" stroke-dasharray="1,5" points="3372,-70 3372,-206 3835,-206 3835,-70 3372,-70"/>
</g>
<g id="clust77" class="cluster">
<title>cluster_LandingModule_declarations</title>
<polygon fill="none" stroke="#000000" points="3556,-78 3556,-130 3827,-130 3827,-78 3556,-78"/>
</g>
<g id="clust80" class="cluster">
<title>cluster_LandingModule_imports</title>
<polygon fill="none" stroke="#000000" points="3380,-78 3380,-130 3548,-130 3548,-78 3380,-78"/>
</g>
<g id="clust90" class="cluster">
<title>cluster_PersonModule</title>
<polygon fill="none" stroke="#000000" stroke-dasharray="1,5" points="3843,-70 3843,-206 4355,-206 4355,-70 3843,-70"/>
</g>
<g id="clust91" class="cluster">
<title>cluster_PersonModule_declarations</title>
<polygon fill="none" stroke="#000000" points="4017,-78 4017,-130 4347,-130 4347,-78 4017,-78"/>
</g>
<g id="clust94" class="cluster">
<title>cluster_PersonModule_imports</title>
<polygon fill="none" stroke="#000000" points="3851,-78 3851,-130 4009,-130 4009,-78 3851,-78"/>
</g>
<g id="clust104" class="cluster">
<title>cluster_SharedModule</title>
<polygon fill="none" stroke="#000000" stroke-dasharray="1,5" points="898,-146 898,-214 1288,-214 1288,-146 898,-146"/>
</g>
<g id="clust105" class="cluster">
<title>cluster_SharedModule_declarations</title>
<polygon fill="none" stroke="#000000" points="1098,-154 1098,-206 1280,-206 1280,-154 1098,-154"/>
</g>
<g id="clust108" class="cluster">
<title>cluster_SharedModule_exports</title>
<polygon fill="none" stroke="#000000" points="906,-154 906,-206 1090,-206 1090,-154 906,-154"/>
</g>
<!-- AdminComponent -->
<g id="node1" class="node">
<title>AdminComponent</title>
<polygon fill="#ffffb3" stroke="#000000" points="278.2204,-122 157.7796,-122 157.7796,-86 278.2204,-86 278.2204,-122"/>
<text text-anchor="middle" x="218" y="-99.8" font-family="Times,serif" font-size="14.00" fill="#000000">AdminComponent</text>
</g>
<!-- AdminModule -->
<g id="node5" class="node">
<title>AdminModule</title>
<polygon fill="#8dd3c7" stroke="#000000" points="487.4386,-198 484.4386,-202 463.4386,-202 460.4386,-198 388.5614,-198 388.5614,-162 487.4386,-162 487.4386,-198"/>
<text text-anchor="middle" x="438" y="-175.8" font-family="Times,serif" font-size="14.00" fill="#000000">AdminModule</text>
</g>
<!-- AdminComponent&#45;&gt;AdminModule -->
<g id="edge1" class="edge">
<title>AdminComponent&#45;&gt;AdminModule</title>
<path fill="none" stroke="#000000" d="M218,-122.0267C218,-142.7672 218,-174 218,-174 218,-174 378.6277,-174 378.6277,-174"/>
<polygon fill="#000000" stroke="#000000" points="378.6277,-177.5001 388.6277,-174 378.6277,-170.5001 378.6277,-177.5001"/>
</g>
<!-- HomeComponent -->
<g id="node2" class="node">
<title>HomeComponent</title>
<polygon fill="#ffffb3" stroke="#000000" points="139.5451,-122 24.4549,-122 24.4549,-86 139.5451,-86 139.5451,-122"/>
<text text-anchor="middle" x="82" y="-99.8" font-family="Times,serif" font-size="14.00" fill="#000000">HomeComponent</text>
</g>
<!-- HomeComponent&#45;&gt;AdminModule -->
<g id="edge2" class="edge">
<title>HomeComponent&#45;&gt;AdminModule</title>
<path fill="none" stroke="#000000" d="M82,-122.1985C82,-146.3563 82,-186 82,-186 82,-186 378.4997,-186 378.4997,-186"/>
<polygon fill="#000000" stroke="#000000" points="378.4998,-189.5001 388.4997,-186 378.4997,-182.5001 378.4998,-189.5001"/>
</g>
<!-- NavBarTopComponent -->
<g id="node3" class="node">
<title>NavBarTopComponent</title>
<polygon fill="#ffffb3" stroke="#000000" points="589.9186,-122 442.0814,-122 442.0814,-86 589.9186,-86 589.9186,-122"/>
<text text-anchor="middle" x="516" y="-99.8" font-family="Times,serif" font-size="14.00" fill="#000000">NavBarTopComponent</text>
</g>
<!-- NavBarTopComponent&#45;&gt;AdminModule -->
<g id="edge3" class="edge">
<title>NavBarTopComponent&#45;&gt;AdminModule</title>
<path fill="none" stroke="#000000" d="M464.7549,-122.0109C464.7549,-122.0109 464.7549,-151.855 464.7549,-151.855"/>
<polygon fill="#000000" stroke="#000000" points="461.255,-151.8549 464.7549,-161.855 468.255,-151.855 461.255,-151.8549"/>
</g>
<!-- NavLeftComponent -->
<g id="node4" class="node">
<title>NavLeftComponent</title>
<polygon fill="#ffffb3" stroke="#000000" points="423.972,-122 296.028,-122 296.028,-86 423.972,-86 423.972,-122"/>
<text text-anchor="middle" x="360" y="-99.8" font-family="Times,serif" font-size="14.00" fill="#000000">NavLeftComponent</text>
</g>
<!-- NavLeftComponent&#45;&gt;AdminModule -->
<g id="edge4" class="edge">
<title>NavLeftComponent&#45;&gt;AdminModule</title>
<path fill="none" stroke="#000000" d="M406.3836,-122.0109C406.3836,-122.0109 406.3836,-151.855 406.3836,-151.855"/>
<polygon fill="#000000" stroke="#000000" points="402.8837,-151.8549 406.3836,-161.855 409.8837,-151.855 402.8837,-151.8549"/>
</g>
<!-- AdminRoutingModule -->
<g id="node6" class="node">
<title>AdminRoutingModule</title>
<polygon fill="#8dd3c7" stroke="#000000" points="757.5561,-122 754.5561,-126 733.5561,-126 730.5561,-122 614.4439,-122 614.4439,-86 757.5561,-86 757.5561,-122"/>
<text text-anchor="middle" x="686" y="-99.8" font-family="Times,serif" font-size="14.00" fill="#000000">AdminRoutingModule</text>
</g>
<!-- AdminRoutingModule&#45;&gt;AdminModule -->
<g id="edge5" class="edge">
<title>AdminRoutingModule&#45;&gt;AdminModule</title>
<path fill="none" stroke="#000000" d="M686,-122.308C686,-142.1455 686,-171 686,-171 686,-171 497.2933,-171 497.2933,-171"/>
<polygon fill="#000000" stroke="#000000" points="497.2934,-167.5001 487.2933,-171 497.2933,-174.5001 497.2934,-167.5001"/>
</g>
<!-- SharedModule -->
<g id="node7" class="node">
<title>SharedModule</title>
<polygon fill="#8dd3c7" stroke="#000000" points="874.4231,-122 871.4231,-126 850.4231,-126 847.4231,-122 775.5769,-122 775.5769,-86 874.4231,-86 874.4231,-122"/>
<text text-anchor="middle" x="825" y="-99.8" font-family="Times,serif" font-size="14.00" fill="#000000">SharedModule</text>
</g>
<!-- SharedModule&#45;&gt;AdminModule -->
<g id="edge6" class="edge">
<title>SharedModule&#45;&gt;AdminModule</title>
<path fill="none" stroke="#000000" d="M786.7247,-122.0109C786.7247,-144.4852 786.7247,-180 786.7247,-180 786.7247,-180 497.2241,-180 497.2241,-180"/>
<polygon fill="#000000" stroke="#000000" points="497.2241,-176.5001 487.2241,-180 497.2241,-183.5001 497.2241,-176.5001"/>
</g>
<!-- AppModule -->
<g id="node10" class="node">
<title>AppModule</title>
<polygon fill="#8dd3c7" stroke="#000000" points="1662.6571,-263 1659.6571,-267 1638.6571,-267 1635.6571,-263 1579.3429,-263 1579.3429,-227 1662.6571,-227 1662.6571,-263"/>
<text text-anchor="middle" x="1621" y="-240.8" font-family="Times,serif" font-size="14.00" fill="#000000">AppModule</text>
</g>
<!-- SharedModule&#45;&gt;AppModule -->
<g id="edge13" class="edge">
<title>SharedModule&#45;&gt;AppModule</title>
<path fill="none" stroke="#000000" d="M797.6605,-122.0935C797.6605,-161.9889 797.6605,-254 797.6605,-254 797.6605,-254 1569.3228,-254 1569.3228,-254"/>
<polygon fill="#000000" stroke="#000000" points="1569.3228,-257.5001 1579.3228,-254 1569.3228,-250.5001 1569.3228,-257.5001"/>
</g>
<!-- AuthModule -->
<g id="node12" class="node">
<title>AuthModule</title>
<polygon fill="#8dd3c7" stroke="#000000" points="1399.5482,-198 1396.5482,-202 1375.5482,-202 1372.5482,-198 1312.4518,-198 1312.4518,-162 1399.5482,-162 1399.5482,-198"/>
<text text-anchor="middle" x="1356" y="-175.8" font-family="Times,serif" font-size="14.00" fill="#000000">AuthModule</text>
</g>
<!-- SharedModule&#45;&gt;AuthModule -->
<g id="edge20" class="edge">
<title>SharedModule&#45;&gt;AuthModule</title>
<path fill="none" stroke="#000000" d="M808.5963,-122.1243C808.5963,-136.7832 808.5963,-155 808.5963,-155 808.5963,-155 1317.0477,-155 1317.0477,-155 1317.0477,-155 1317.0477,-155.6831 1317.0477,-155.6831"/>
<polygon fill="#000000" stroke="#000000" points="1313.5478,-151.8313 1317.0477,-161.8314 1320.5478,-151.8314 1313.5478,-151.8313"/>
</g>
<!-- InstitutionModule -->
<g id="node28" class="node">
<title>InstitutionModule</title>
<polygon fill="#8dd3c7" stroke="#000000" points="2731.608,-198 2728.608,-202 2707.608,-202 2704.608,-198 2614.392,-198 2614.392,-162 2731.608,-162 2731.608,-198"/>
<text text-anchor="middle" x="2673" y="-175.8" font-family="Times,serif" font-size="14.00" fill="#000000">InstitutionModule</text>
</g>
<!-- SharedModule&#45;&gt;InstitutionModule -->
<g id="edge29" class="edge">
<title>SharedModule&#45;&gt;InstitutionModule</title>
<path fill="none" stroke="#000000" d="M819.5321,-122.2015C819.5321,-128.028 819.5321,-133 819.5321,-133 819.5321,-133 2653.482,-133 2653.482,-133 2653.482,-133 2653.482,-151.963 2653.482,-151.963"/>
<polygon fill="#000000" stroke="#000000" points="2649.9821,-151.963 2653.482,-161.963 2656.9821,-151.963 2649.9821,-151.963"/>
</g>
<!-- LandingModule -->
<g id="node32" class="node">
<title>LandingModule</title>
<polygon fill="#8dd3c7" stroke="#000000" points="3598.2078,-198 3595.2078,-202 3574.2078,-202 3571.2078,-198 3491.7922,-198 3491.7922,-162 3598.2078,-162 3598.2078,-198"/>
<text text-anchor="middle" x="3545" y="-175.8" font-family="Times,serif" font-size="14.00" fill="#000000">LandingModule</text>
</g>
<!-- SharedModule&#45;&gt;LandingModule -->
<g id="edge33" class="edge">
<title>SharedModule&#45;&gt;LandingModule</title>
<path fill="none" stroke="#000000" d="M830.4679,-122.0579C830.4679,-126.4945 830.4679,-130 830.4679,-130 830.4679,-130 3507.8184,-130 3507.8184,-130 3507.8184,-130 3507.8184,-151.9489 3507.8184,-151.9489"/>
<polygon fill="#000000" stroke="#000000" points="3504.3185,-151.9488 3507.8184,-161.9489 3511.3185,-151.9489 3504.3185,-151.9488"/>
</g>
<!-- PersonModule -->
<g id="node36" class="node">
<title>PersonModule</title>
<polygon fill="#8dd3c7" stroke="#000000" points="4069.6528,-198 4066.6528,-202 4045.6528,-202 4042.6528,-198 3972.3472,-198 3972.3472,-162 4069.6528,-162 4069.6528,-198"/>
<text text-anchor="middle" x="4021" y="-175.8" font-family="Times,serif" font-size="14.00" fill="#000000">PersonModule</text>
</g>
<!-- SharedModule&#45;&gt;PersonModule -->
<g id="edge37" class="edge">
<title>SharedModule&#45;&gt;PersonModule</title>
<path fill="none" stroke="#000000" d="M841.4037,-122.1679C841.4037,-124.4478 841.4037,-126 841.4037,-126 841.4037,-126 3981.9109,-126 3981.9109,-126 3981.9109,-126 3981.9109,-151.7181 3981.9109,-151.7181"/>
<polygon fill="#000000" stroke="#000000" points="3978.411,-151.718 3981.9109,-161.7181 3985.411,-151.7181 3978.411,-151.718"/>
</g>
<!-- ConfirmModalComponent  -->
<g id="node39" class="node">
<title>ConfirmModalComponent </title>
<polygon fill="#fb8072" stroke="#000000" points="1082.3213,-198 913.6787,-198 913.6787,-162 1082.3213,-162 1082.3213,-198"/>
<text text-anchor="middle" x="998" y="-175.8" font-family="Times,serif" font-size="14.00" fill="#000000">ConfirmModalComponent </text>
</g>
<!-- SharedModule&#45;&gt;ConfirmModalComponent  -->
<g id="edge39" class="edge">
<title>SharedModule&#45;&gt;ConfirmModalComponent </title>
<path fill="none" stroke="#000000" stroke-dasharray="5,2" d="M863.2753,-122.0263C863.2753,-146.9773 863.2753,-189 863.2753,-189 863.2753,-189 903.4418,-189 903.4418,-189"/>
<polygon fill="#000000" stroke="#000000" points="903.4418,-192.5001 913.4418,-189 903.4418,-185.5001 903.4418,-192.5001"/>
</g>
<!-- AppComponent -->
<g id="node8" class="node">
<title>AppComponent</title>
<polygon fill="#ffffb3" stroke="#000000" points="2094.9399,-198 1989.0601,-198 1989.0601,-162 2094.9399,-162 2094.9399,-198"/>
<text text-anchor="middle" x="2042" y="-175.8" font-family="Times,serif" font-size="14.00" fill="#000000">AppComponent</text>
</g>
<!-- AppComponent&#45;&gt;AppModule -->
<g id="edge7" class="edge">
<title>AppComponent&#45;&gt;AppModule</title>
<path fill="none" stroke="#000000" d="M2042,-198.2921C2042,-220.2057 2042,-254 2042,-254 2042,-254 1672.9062,-254 1672.9062,-254"/>
<polygon fill="#000000" stroke="#000000" points="1672.9063,-250.5001 1662.9062,-254 1672.9062,-257.5001 1672.9063,-250.5001"/>
</g>
<!-- PageNotFoundComponent -->
<g id="node9" class="node">
<title>PageNotFoundComponent</title>
<polygon fill="#ffffb3" stroke="#000000" points="1971.8243,-198 1806.1757,-198 1806.1757,-162 1971.8243,-162 1971.8243,-198"/>
<text text-anchor="middle" x="1889" y="-175.8" font-family="Times,serif" font-size="14.00" fill="#000000">PageNotFoundComponent</text>
</g>
<!-- PageNotFoundComponent&#45;&gt;AppModule -->
<g id="edge8" class="edge">
<title>PageNotFoundComponent&#45;&gt;AppModule</title>
<path fill="none" stroke="#000000" d="M1889,-198.1061C1889,-217.3391 1889,-245 1889,-245 1889,-245 1672.875,-245 1672.875,-245"/>
<polygon fill="#000000" stroke="#000000" points="1672.875,-241.5001 1662.875,-245 1672.875,-248.5001 1672.875,-241.5001"/>
</g>
<!-- AppComponent  -->
<g id="node15" class="node">
<title>AppComponent </title>
<polygon fill="#80b1d3" stroke="#000000" points="1675.439,-328 1566.561,-328 1566.561,-292 1675.439,-292 1675.439,-328"/>
<text text-anchor="middle" x="1621" y="-305.8" font-family="Times,serif" font-size="14.00" fill="#000000">AppComponent </text>
</g>
<!-- AppModule&#45;&gt;AppComponent  -->
<g id="edge14" class="edge">
<title>AppModule&#45;&gt;AppComponent </title>
<path fill="none" stroke="#000000" stroke-dasharray="1,5" d="M1621,-263.1061C1621,-263.1061 1621,-281.991 1621,-281.991"/>
<polygon fill="#000000" stroke="#000000" points="1617.5001,-281.9909 1621,-291.991 1624.5001,-281.991 1617.5001,-281.9909"/>
</g>
<!-- AppRoutingModule -->
<g id="node11" class="node">
<title>AppRoutingModule</title>
<polygon fill="#8dd3c7" stroke="#000000" points="1546.2744,-198 1543.2744,-202 1522.2744,-202 1519.2744,-198 1417.7256,-198 1417.7256,-162 1546.2744,-162 1546.2744,-198"/>
<text text-anchor="middle" x="1482" y="-175.8" font-family="Times,serif" font-size="14.00" fill="#000000">AppRoutingModule</text>
</g>
<!-- AppRoutingModule&#45;&gt;AppModule -->
<g id="edge9" class="edge">
<title>AppRoutingModule&#45;&gt;AppModule</title>
<path fill="none" stroke="#000000" d="M1482,-198.027C1482,-214.3976 1482,-236 1482,-236 1482,-236 1569.2954,-236 1569.2954,-236"/>
<polygon fill="#000000" stroke="#000000" points="1569.2955,-239.5001 1579.2954,-236 1569.2954,-232.5001 1569.2955,-239.5001"/>
</g>
<!-- AuthModule&#45;&gt;AppModule -->
<g id="edge10" class="edge">
<title>AuthModule&#45;&gt;AppModule</title>
<path fill="none" stroke="#000000" d="M1356,-198.1061C1356,-217.3391 1356,-245 1356,-245 1356,-245 1569.3022,-245 1569.3022,-245"/>
<polygon fill="#000000" stroke="#000000" points="1569.3023,-248.5001 1579.3022,-245 1569.3022,-241.5001 1569.3023,-248.5001"/>
</g>
<!-- CoreModule -->
<g id="node13" class="node">
<title>CoreModule</title>
<polygon fill="#8dd3c7" stroke="#000000" points="1782.2619,-198 1779.2619,-202 1758.2619,-202 1755.2619,-198 1695.7381,-198 1695.7381,-162 1782.2619,-162 1782.2619,-198"/>
<text text-anchor="middle" x="1739" y="-175.8" font-family="Times,serif" font-size="14.00" fill="#000000">CoreModule</text>
</g>
<!-- CoreModule&#45;&gt;AppModule -->
<g id="edge11" class="edge">
<title>CoreModule&#45;&gt;AppModule</title>
<path fill="none" stroke="#000000" d="M1739,-198.027C1739,-214.3976 1739,-236 1739,-236 1739,-236 1672.9346,-236 1672.9346,-236"/>
<polygon fill="#000000" stroke="#000000" points="1672.9347,-232.5001 1662.9346,-236 1672.9346,-239.5001 1672.9347,-232.5001"/>
</g>
<!-- GraphQLModule -->
<g id="node14" class="node">
<title>GraphQLModule</title>
<polygon fill="#8dd3c7" stroke="#000000" points="1677.691,-198 1674.691,-202 1653.691,-202 1650.691,-198 1564.309,-198 1564.309,-162 1677.691,-162 1677.691,-198"/>
<text text-anchor="middle" x="1621" y="-175.8" font-family="Times,serif" font-size="14.00" fill="#000000">GraphQLModule</text>
</g>
<!-- GraphQLModule&#45;&gt;AppModule -->
<g id="edge12" class="edge">
<title>GraphQLModule&#45;&gt;AppModule</title>
<path fill="none" stroke="#000000" d="M1621,-198.1061C1621,-198.1061 1621,-216.991 1621,-216.991"/>
<polygon fill="#000000" stroke="#000000" points="1617.5001,-216.9909 1621,-226.991 1624.5001,-216.991 1617.5001,-216.9909"/>
</g>
<!-- LoginComponent -->
<g id="node16" class="node">
<title>LoginComponent</title>
<polygon fill="#ffffb3" stroke="#000000" points="1650.2758,-122 1535.7242,-122 1535.7242,-86 1650.2758,-86 1650.2758,-122"/>
<text text-anchor="middle" x="1593" y="-99.8" font-family="Times,serif" font-size="14.00" fill="#000000">LoginComponent</text>
</g>
<!-- LoginComponent&#45;&gt;AuthModule -->
<g id="edge15" class="edge">
<title>LoginComponent&#45;&gt;AuthModule</title>
<path fill="none" stroke="#000000" d="M1540.9997,-122.0449C1540.9997,-129.749 1540.9997,-137 1540.9997,-137 1540.9997,-137 1376.0491,-137 1376.0491,-137 1376.0491,-137 1376.0491,-151.5146 1376.0491,-151.5146"/>
<polygon fill="#000000" stroke="#000000" points="1372.5492,-151.5145 1376.0491,-161.5146 1379.5492,-151.5146 1372.5492,-151.5145"/>
</g>
<!-- RequestResetComponent -->
<g id="node17" class="node">
<title>RequestResetComponent</title>
<polygon fill="#ffffb3" stroke="#000000" points="1517.5351,-122 1360.4649,-122 1360.4649,-86 1517.5351,-86 1517.5351,-122"/>
<text text-anchor="middle" x="1439" y="-99.8" font-family="Times,serif" font-size="14.00" fill="#000000">RequestResetComponent</text>
</g>
<!-- RequestResetComponent&#45;&gt;AuthModule -->
<g id="edge16" class="edge">
<title>RequestResetComponent&#45;&gt;AuthModule</title>
<path fill="none" stroke="#000000" d="M1368.1409,-122.0109C1368.1409,-122.0109 1368.1409,-151.855 1368.1409,-151.855"/>
<polygon fill="#000000" stroke="#000000" points="1364.641,-151.8549 1368.1409,-161.855 1371.641,-151.855 1364.641,-151.8549"/>
</g>
<!-- ResponseResetComponent -->
<g id="node18" class="node">
<title>ResponseResetComponent</title>
<polygon fill="#ffffb3" stroke="#000000" points="1974.0884,-122 1807.9116,-122 1807.9116,-86 1974.0884,-86 1974.0884,-122"/>
<text text-anchor="middle" x="1891" y="-99.8" font-family="Times,serif" font-size="14.00" fill="#000000">ResponseResetComponent</text>
</g>
<!-- ResponseResetComponent&#45;&gt;AuthModule -->
<g id="edge17" class="edge">
<title>ResponseResetComponent&#45;&gt;AuthModule</title>
<path fill="none" stroke="#000000" d="M1889.8089,-122.1274C1889.8089,-132.7109 1889.8089,-144 1889.8089,-144 1889.8089,-144 1391.8654,-144 1391.8654,-144 1391.8654,-144 1391.8654,-151.5782 1391.8654,-151.5782"/>
<polygon fill="#000000" stroke="#000000" points="1388.3655,-151.5781 1391.8654,-161.5782 1395.3655,-151.5782 1388.3655,-151.5781"/>
</g>
<!-- SignupComponent -->
<g id="node19" class="node">
<title>SignupComponent</title>
<polygon fill="#ffffb3" stroke="#000000" points="1789.5056,-122 1668.4944,-122 1668.4944,-86 1789.5056,-86 1789.5056,-122"/>
<text text-anchor="middle" x="1729" y="-99.8" font-family="Times,serif" font-size="14.00" fill="#000000">SignupComponent</text>
</g>
<!-- SignupComponent&#45;&gt;AuthModule -->
<g id="edge18" class="edge">
<title>SignupComponent&#45;&gt;AuthModule</title>
<path fill="none" stroke="#000000" d="M1673.0463,-122.0664C1673.0463,-131.4587 1673.0463,-141 1673.0463,-141 1673.0463,-141 1383.9572,-141 1383.9572,-141 1383.9572,-141 1383.9572,-151.8701 1383.9572,-151.8701"/>
<polygon fill="#000000" stroke="#000000" points="1380.4573,-151.8701 1383.9572,-161.8701 1387.4573,-151.8701 1380.4573,-151.8701"/>
</g>
<!-- AuthRoutingModule -->
<g id="node20" class="node">
<title>AuthRoutingModule</title>
<polygon fill="#8dd3c7" stroke="#000000" points="1336.1652,-122 1333.1652,-126 1312.1652,-126 1309.1652,-122 1203.8348,-122 1203.8348,-86 1336.1652,-86 1336.1652,-122"/>
<text text-anchor="middle" x="1270" y="-99.8" font-family="Times,serif" font-size="14.00" fill="#000000">AuthRoutingModule</text>
</g>
<!-- AuthRoutingModule&#45;&gt;AuthModule -->
<g id="edge19" class="edge">
<title>AuthRoutingModule&#45;&gt;AuthModule</title>
<path fill="none" stroke="#000000" d="M1331.5112,-122.0109C1331.5112,-122.0109 1331.5112,-151.855 1331.5112,-151.855"/>
<polygon fill="#000000" stroke="#000000" points="1328.0113,-151.8549 1331.5112,-161.855 1335.0113,-151.855 1328.0113,-151.8549"/>
</g>
<!-- AuthService -->
<g id="node21" class="node">
<title>AuthService</title>
<ellipse fill="#fdb462" stroke="#000000" cx="1121" cy="-104" rx="59.1083" ry="18"/>
<text text-anchor="middle" x="1121" y="-99.8" font-family="Times,serif" font-size="14.00" fill="#000000">AuthService</text>
</g>
<!-- AuthService&#45;&gt;AuthModule -->
<g id="edge21" class="edge">
<title>AuthService&#45;&gt;AuthModule</title>
<path fill="none" stroke="#000000" d="M1155.649,-118.8964C1155.649,-131.6611 1155.649,-148 1155.649,-148 1155.649,-148 1326.69,-148 1326.69,-148 1326.69,-148 1326.69,-151.7566 1326.69,-151.7566"/>
<polygon fill="#000000" stroke="#000000" points="1323.1901,-151.7566 1326.69,-161.7566 1330.1901,-151.7566 1323.1901,-151.7566"/>
</g>
<!-- TokenService -->
<g id="node22" class="node">
<title>TokenService</title>
<ellipse fill="#fdb462" stroke="#000000" cx="979" cy="-104" rx="64.8273" ry="18"/>
<text text-anchor="middle" x="979" y="-99.8" font-family="Times,serif" font-size="14.00" fill="#000000">TokenService</text>
</g>
<!-- TokenService&#45;&gt;AuthModule -->
<g id="edge22" class="edge">
<title>TokenService&#45;&gt;AuthModule</title>
<path fill="none" stroke="#000000" d="M979,-122.1467C979,-135.7395 979,-152 979,-152 979,-152 1321.8689,-152 1321.8689,-152 1321.8689,-152 1321.8689,-152.9793 1321.8689,-152.9793"/>
<polygon fill="#000000" stroke="#000000" points="1318.369,-151.793 1321.8689,-161.793 1325.369,-151.7931 1318.369,-151.793"/>
</g>
<!-- InstitutionCategoryComponent -->
<g id="node23" class="node">
<title>InstitutionCategoryComponent</title>
<polygon fill="#ffffb3" stroke="#000000" points="3348.2077,-122 3157.7923,-122 3157.7923,-86 3348.2077,-86 3348.2077,-122"/>
<text text-anchor="middle" x="3253" y="-99.8" font-family="Times,serif" font-size="14.00" fill="#000000">InstitutionCategoryComponent</text>
</g>
<!-- InstitutionCategoryComponent&#45;&gt;InstitutionModule -->
<g id="edge23" class="edge">
<title>InstitutionCategoryComponent&#45;&gt;InstitutionModule</title>
<path fill="none" stroke="#000000" d="M3253,-122.0263C3253,-146.9773 3253,-189 3253,-189 3253,-189 2741.8053,-189 2741.8053,-189"/>
<polygon fill="#000000" stroke="#000000" points="2741.8054,-185.5001 2731.8053,-189 2741.8053,-192.5001 2741.8054,-185.5001"/>
</g>
<!-- InstitutionComponent -->
<g id="node24" class="node">
<title>InstitutionComponent</title>
<polygon fill="#ffffb3" stroke="#000000" points="3139.3906,-122 3000.6094,-122 3000.6094,-86 3139.3906,-86 3139.3906,-122"/>
<text text-anchor="middle" x="3070" y="-99.8" font-family="Times,serif" font-size="14.00" fill="#000000">InstitutionComponent</text>
</g>
<!-- InstitutionComponent&#45;&gt;InstitutionModule -->
<g id="edge24" class="edge">
<title>InstitutionComponent&#45;&gt;InstitutionModule</title>
<path fill="none" stroke="#000000" d="M3070,-122.0109C3070,-144.4852 3070,-180 3070,-180 3070,-180 2741.5787,-180 2741.5787,-180"/>
<polygon fill="#000000" stroke="#000000" points="2741.5788,-176.5001 2731.5787,-180 2741.5787,-183.5001 2741.5788,-176.5001"/>
</g>
<!-- InstitutionInfoComponent -->
<g id="node25" class="node">
<title>InstitutionInfoComponent</title>
<polygon fill="#ffffb3" stroke="#000000" points="2982.2119,-122 2819.7881,-122 2819.7881,-86 2982.2119,-86 2982.2119,-122"/>
<text text-anchor="middle" x="2901" y="-99.8" font-family="Times,serif" font-size="14.00" fill="#000000">InstitutionInfoComponent</text>
</g>
<!-- InstitutionInfoComponent&#45;&gt;InstitutionModule -->
<g id="edge25" class="edge">
<title>InstitutionInfoComponent&#45;&gt;InstitutionModule</title>
<path fill="none" stroke="#000000" d="M2901,-122.308C2901,-142.1455 2901,-171 2901,-171 2901,-171 2741.7157,-171 2741.7157,-171"/>
<polygon fill="#000000" stroke="#000000" points="2741.7157,-167.5001 2731.7157,-171 2741.7156,-174.5001 2741.7157,-167.5001"/>
</g>
<!-- ModalFormInstitutionCategoryComponent -->
<g id="node26" class="node">
<title>ModalFormInstitutionCategoryComponent</title>
<polygon fill="#ffffb3" stroke="#000000" points="2801.5912,-122 2544.4088,-122 2544.4088,-86 2801.5912,-86 2801.5912,-122"/>
<text text-anchor="middle" x="2673" y="-99.8" font-family="Times,serif" font-size="14.00" fill="#000000">ModalFormInstitutionCategoryComponent</text>
</g>
<!-- ModalFormInstitutionCategoryComponent&#45;&gt;InstitutionModule -->
<g id="edge26" class="edge">
<title>ModalFormInstitutionCategoryComponent&#45;&gt;InstitutionModule</title>
<path fill="none" stroke="#000000" d="M2692.518,-122.0109C2692.518,-122.0109 2692.518,-151.855 2692.518,-151.855"/>
<polygon fill="#000000" stroke="#000000" points="2689.0181,-151.8549 2692.518,-161.855 2696.0181,-151.855 2689.0181,-151.8549"/>
</g>
<!-- ModalFormInstitutionComponent -->
<g id="node27" class="node">
<title>ModalFormInstitutionComponent</title>
<polygon fill="#ffffb3" stroke="#000000" points="2526.7743,-122 2321.2257,-122 2321.2257,-86 2526.7743,-86 2526.7743,-122"/>
<text text-anchor="middle" x="2424" y="-99.8" font-family="Times,serif" font-size="14.00" fill="#000000">ModalFormInstitutionComponent</text>
</g>
<!-- ModalFormInstitutionComponent&#45;&gt;InstitutionModule -->
<g id="edge27" class="edge">
<title>ModalFormInstitutionComponent&#45;&gt;InstitutionModule</title>
<path fill="none" stroke="#000000" d="M2424,-122.0267C2424,-142.7672 2424,-174 2424,-174 2424,-174 2604.3058,-174 2604.3058,-174"/>
<polygon fill="#000000" stroke="#000000" points="2604.3058,-177.5001 2614.3058,-174 2604.3057,-170.5001 2604.3058,-177.5001"/>
</g>
<!-- InstitutionRoutingModule -->
<g id="node29" class="node">
<title>InstitutionRoutingModule</title>
<polygon fill="#8dd3c7" stroke="#000000" points="2297.226,-122 2294.226,-126 2273.226,-126 2270.226,-122 2134.774,-122 2134.774,-86 2297.226,-86 2297.226,-122"/>
<text text-anchor="middle" x="2216" y="-99.8" font-family="Times,serif" font-size="14.00" fill="#000000">InstitutionRoutingModule</text>
</g>
<!-- InstitutionRoutingModule&#45;&gt;InstitutionModule -->
<g id="edge28" class="edge">
<title>InstitutionRoutingModule&#45;&gt;InstitutionModule</title>
<path fill="none" stroke="#000000" d="M2216,-122.1985C2216,-146.3563 2216,-186 2216,-186 2216,-186 2604.1908,-186 2604.1908,-186"/>
<polygon fill="#000000" stroke="#000000" points="2604.1908,-189.5001 2614.1908,-186 2604.1908,-182.5001 2604.1908,-189.5001"/>
</g>
<!-- MapsComponent -->
<g id="node30" class="node">
<title>MapsComponent</title>
<polygon fill="#ffffb3" stroke="#000000" points="3819.437,-122 3706.563,-122 3706.563,-86 3819.437,-86 3819.437,-122"/>
<text text-anchor="middle" x="3763" y="-99.8" font-family="Times,serif" font-size="14.00" fill="#000000">MapsComponent</text>
</g>
<!-- MapsComponent&#45;&gt;LandingModule -->
<g id="edge30" class="edge">
<title>MapsComponent&#45;&gt;LandingModule</title>
<path fill="none" stroke="#000000" d="M3763,-122.0109C3763,-144.4852 3763,-180 3763,-180 3763,-180 3608.3288,-180 3608.3288,-180"/>
<polygon fill="#000000" stroke="#000000" points="3608.3288,-176.5001 3598.3288,-180 3608.3288,-183.5001 3608.3288,-176.5001"/>
</g>
<!-- NavBarComponent -->
<g id="node31" class="node">
<title>NavBarComponent</title>
<polygon fill="#ffffb3" stroke="#000000" points="3688.3655,-122 3563.6345,-122 3563.6345,-86 3688.3655,-86 3688.3655,-122"/>
<text text-anchor="middle" x="3626" y="-99.8" font-family="Times,serif" font-size="14.00" fill="#000000">NavBarComponent</text>
</g>
<!-- NavBarComponent&#45;&gt;LandingModule -->
<g id="edge31" class="edge">
<title>NavBarComponent&#45;&gt;LandingModule</title>
<path fill="none" stroke="#000000" d="M3580.8356,-122.0109C3580.8356,-122.0109 3580.8356,-151.855 3580.8356,-151.855"/>
<polygon fill="#000000" stroke="#000000" points="3577.3356,-151.8549 3580.8356,-161.855 3584.3356,-151.855 3577.3356,-151.8549"/>
</g>
<!-- LandingRoutingModule -->
<g id="node33" class="node">
<title>LandingRoutingModule</title>
<polygon fill="#8dd3c7" stroke="#000000" points="3539.8258,-122 3536.8258,-126 3515.8258,-126 3512.8258,-122 3388.1742,-122 3388.1742,-86 3539.8258,-86 3539.8258,-122"/>
<text text-anchor="middle" x="3464" y="-99.8" font-family="Times,serif" font-size="14.00" fill="#000000">LandingRoutingModule</text>
</g>
<!-- LandingRoutingModule&#45;&gt;LandingModule -->
<g id="edge32" class="edge">
<title>LandingRoutingModule&#45;&gt;LandingModule</title>
<path fill="none" stroke="#000000" d="M3523.7405,-122.0109C3523.7405,-122.0109 3523.7405,-151.855 3523.7405,-151.855"/>
<polygon fill="#000000" stroke="#000000" points="3520.2406,-151.8549 3523.7405,-161.855 3527.2406,-151.855 3520.2406,-151.8549"/>
</g>
<!-- PersonComponent -->
<g id="node34" class="node">
<title>PersonComponent</title>
<polygon fill="#ffffb3" stroke="#000000" points="4338.9356,-122 4219.0644,-122 4219.0644,-86 4338.9356,-86 4338.9356,-122"/>
<text text-anchor="middle" x="4279" y="-99.8" font-family="Times,serif" font-size="14.00" fill="#000000">PersonComponent</text>
</g>
<!-- PersonComponent&#45;&gt;PersonModule -->
<g id="edge34" class="edge">
<title>PersonComponent&#45;&gt;PersonModule</title>
<path fill="none" stroke="#000000" d="M4279,-122.0109C4279,-144.4852 4279,-180 4279,-180 4279,-180 4079.8311,-180 4079.8311,-180"/>
<polygon fill="#000000" stroke="#000000" points="4079.8312,-176.5001 4069.8311,-180 4079.8311,-183.5001 4079.8312,-176.5001"/>
</g>
<!-- PersonsCategoryComponent -->
<g id="node35" class="node">
<title>PersonsCategoryComponent</title>
<polygon fill="#ffffb3" stroke="#000000" points="4201.1965,-122 4024.8035,-122 4024.8035,-86 4201.1965,-86 4201.1965,-122"/>
<text text-anchor="middle" x="4113" y="-99.8" font-family="Times,serif" font-size="14.00" fill="#000000">PersonsCategoryComponent</text>
</g>
<!-- PersonsCategoryComponent&#45;&gt;PersonModule -->
<g id="edge35" class="edge">
<title>PersonsCategoryComponent&#45;&gt;PersonModule</title>
<path fill="none" stroke="#000000" d="M4047.364,-122.0109C4047.364,-122.0109 4047.364,-151.855 4047.364,-151.855"/>
<polygon fill="#000000" stroke="#000000" points="4043.864,-151.8549 4047.364,-161.855 4050.864,-151.855 4043.864,-151.8549"/>
</g>
<!-- PersonRoutingModule -->
<g id="node37" class="node">
<title>PersonRoutingModule</title>
<polygon fill="#8dd3c7" stroke="#000000" points="4001.2702,-122 3998.2702,-126 3977.2702,-126 3974.2702,-122 3858.7298,-122 3858.7298,-86 4001.2702,-86 4001.2702,-122"/>
<text text-anchor="middle" x="3930" y="-99.8" font-family="Times,serif" font-size="14.00" fill="#000000">PersonRoutingModule</text>
</g>
<!-- PersonRoutingModule&#45;&gt;PersonModule -->
<g id="edge36" class="edge">
<title>PersonRoutingModule&#45;&gt;PersonModule</title>
<path fill="none" stroke="#000000" d="M3991.648,-122.0109C3991.648,-122.0109 3991.648,-151.855 3991.648,-151.855"/>
<polygon fill="#000000" stroke="#000000" points="3988.1481,-151.8549 3991.648,-161.855 3995.1481,-151.855 3988.1481,-151.8549"/>
</g>
<!-- ConfirmModalComponent -->
<g id="node38" class="node">
<title>ConfirmModalComponent</title>
<polygon fill="#ffffb3" stroke="#000000" points="1271.8215,-198 1106.1785,-198 1106.1785,-162 1271.8215,-162 1271.8215,-198"/>
<text text-anchor="middle" x="1189" y="-175.8" font-family="Times,serif" font-size="14.00" fill="#000000">ConfirmModalComponent</text>
</g>
<!-- ConfirmModalComponent&#45;&gt;SharedModule -->
<g id="edge38" class="edge">
<title>ConfirmModalComponent&#45;&gt;SharedModule</title>
<path fill="none" stroke="#000000" d="M1130.9942,-161.92C1130.9942,-160.1536 1130.9942,-159 1130.9942,-159 1130.9942,-159 852.3395,-159 852.3395,-159 852.3395,-159 852.3395,-132.0091 852.3395,-132.0091"/>
<polygon fill="#000000" stroke="#000000" points="855.8396,-132.009 852.3395,-122.0091 848.8396,-132.0091 855.8396,-132.009"/>
</g>
</g>
</svg>
