<?xml version="1.0" encoding="UTF-8" standalone="no"?>
<!DOCTYPE svg PUBLIC "-//W3C//DTD SVG 1.1//EN"
 "http://www.w3.org/Graphics/SVG/1.1/DTD/svg11.dtd">
<!-- Generated by graphviz version 2.40.1 (20161225.0304)
 -->
<!-- Title: dependencies Pages: 1 -->
<svg width="653pt" height="211pt"
 viewBox="0.00 0.00 653.00 211.00" xmlns="http://www.w3.org/2000/svg" xmlns:xlink="http://www.w3.org/1999/xlink">
<g id="graph0" class="graph" transform="scale(1 1) rotate(0) translate(4 207)">
<title>dependencies</title>
<polygon fill="#ffffff" stroke="transparent" points="-4,4 -4,-207 649,-207 649,4 -4,4"/>
<text text-anchor="start" x="301.5091" y="-42.4" font-family="sans-serif" font-weight="bold" font-size="14.00" fill="#000000">Legend</text>
<polygon fill="#ffffb3" stroke="transparent" points="88.5,-10 88.5,-30 108.5,-30 108.5,-10 88.5,-10"/>
<text text-anchor="start" x="112.129" y="-15.4" font-family="sans-serif" font-size="14.00" fill="#000000"> &#160;Declarations</text>
<polygon fill="#8dd3c7" stroke="transparent" points="201.5,-10 201.5,-30 221.5,-30 221.5,-10 201.5,-10"/>
<text text-anchor="start" x="225.2251" y="-15.4" font-family="sans-serif" font-size="14.00" fill="#000000"> &#160;Module</text>
<polygon fill="#80b1d3" stroke="transparent" points="287.5,-10 287.5,-30 307.5,-30 307.5,-10 287.5,-10"/>
<text text-anchor="start" x="311.2812" y="-15.4" font-family="sans-serif" font-size="14.00" fill="#000000"> &#160;Bootstrap</text>
<polygon fill="#fdb462" stroke="transparent" points="384.5,-10 384.5,-30 404.5,-30 404.5,-10 384.5,-10"/>
<text text-anchor="start" x="408.1732" y="-15.4" font-family="sans-serif" font-size="14.00" fill="#000000"> &#160;Providers</text>
<polygon fill="#fb8072" stroke="transparent" points="480.5,-10 480.5,-30 500.5,-30 500.5,-10 480.5,-10"/>
<text text-anchor="start" x="504.2258" y="-15.4" font-family="sans-serif" font-size="14.00" fill="#000000"> &#160;Exports</text>
<g id="clust1" class="cluster">
<title>cluster_PersonModule</title>
<polygon fill="none" stroke="#000000" stroke-dasharray="1,5" points="8,-70 8,-195 637,-195 637,-70 8,-70"/>
</g>
<g id="clust2" class="cluster">
<title>cluster_PersonModule_declarations</title>
<polygon fill="none" stroke="#000000" points="299,-78 299,-130 629,-130 629,-78 299,-78"/>
</g>
<g id="clust5" class="cluster">
<title>cluster_PersonModule_imports</title>
<polygon fill="none" stroke="#000000" points="16,-78 16,-130 291,-130 291,-78 16,-78"/>
</g>
<!-- PersonComponent -->
<g id="node1" class="node">
<title>PersonComponent</title>
<polygon fill="#ffffb3" stroke="#000000" points="620.9356,-122 501.0644,-122 501.0644,-86 620.9356,-86 620.9356,-122"/>
<text text-anchor="middle" x="561" y="-99.8" font-family="Times,serif" font-size="14.00" fill="#000000">PersonComponent</text>
</g>
<!-- PersonModule -->
<g id="node3" class="node">
<title>PersonModule</title>
<polygon fill="#8dd3c7" stroke="#000000" points="351.6528,-187 348.6528,-191 327.6528,-191 324.6528,-187 254.3472,-187 254.3472,-151 351.6528,-151 351.6528,-187"/>
<text text-anchor="middle" x="303" y="-164.8" font-family="Times,serif" font-size="14.00" fill="#000000">PersonModule</text>
</g>
<!-- PersonComponent&#45;&gt;PersonModule -->
<g id="edge1" class="edge">
<title>PersonComponent&#45;&gt;PersonModule</title>
<path fill="none" stroke="#000000" d="M561,-122.1061C561,-141.3391 561,-169 561,-169 561,-169 361.8311,-169 361.8311,-169"/>
<polygon fill="#000000" stroke="#000000" points="361.8312,-165.5001 351.8311,-169 361.8311,-172.5001 361.8312,-165.5001"/>
</g>
<!-- PersonsCategoryComponent -->
<g id="node2" class="node">
<title>PersonsCategoryComponent</title>
<polygon fill="#ffffb3" stroke="#000000" points="483.1965,-122 306.8035,-122 306.8035,-86 483.1965,-86 483.1965,-122"/>
<text text-anchor="middle" x="395" y="-99.8" font-family="Times,serif" font-size="14.00" fill="#000000">PersonsCategoryComponent</text>
</g>
<!-- PersonsCategoryComponent&#45;&gt;PersonModule -->
<g id="edge2" class="edge">
<title>PersonsCategoryComponent&#45;&gt;PersonModule</title>
<path fill="none" stroke="#000000" d="M329.364,-122.1061C329.364,-122.1061 329.364,-140.991 329.364,-140.991"/>
<polygon fill="#000000" stroke="#000000" points="325.864,-140.9909 329.364,-150.991 332.864,-140.991 325.864,-140.9909"/>
</g>
<!-- PersonRoutingModule -->
<g id="node4" class="node">
<title>PersonRoutingModule</title>
<polygon fill="#8dd3c7" stroke="#000000" points="283.2702,-122 280.2702,-126 259.2702,-126 256.2702,-122 140.7298,-122 140.7298,-86 283.2702,-86 283.2702,-122"/>
<text text-anchor="middle" x="212" y="-99.8" font-family="Times,serif" font-size="14.00" fill="#000000">PersonRoutingModule</text>
</g>
<!-- PersonRoutingModule&#45;&gt;PersonModule -->
<g id="edge3" class="edge">
<title>PersonRoutingModule&#45;&gt;PersonModule</title>
<path fill="none" stroke="#000000" d="M268.7795,-122.1061C268.7795,-122.1061 268.7795,-140.991 268.7795,-140.991"/>
<polygon fill="#000000" stroke="#000000" points="265.2795,-140.9909 268.7795,-150.991 272.2795,-140.991 265.2795,-140.9909"/>
</g>
<!-- SharedModule -->
<g id="node5" class="node">
<title>SharedModule</title>
<polygon fill="#8dd3c7" stroke="#000000" points="122.4231,-122 119.4231,-126 98.4231,-126 95.4231,-122 23.5769,-122 23.5769,-86 122.4231,-86 122.4231,-122"/>
<text text-anchor="middle" x="73" y="-99.8" font-family="Times,serif" font-size="14.00" fill="#000000">SharedModule</text>
</g>
<!-- SharedModule&#45;&gt;PersonModule -->
<g id="edge4" class="edge">
<title>SharedModule&#45;&gt;PersonModule</title>
<path fill="none" stroke="#000000" d="M73,-122.1061C73,-141.3391 73,-169 73,-169 73,-169 244.2229,-169 244.2229,-169"/>
<polygon fill="#000000" stroke="#000000" points="244.223,-172.5001 254.2229,-169 244.2229,-165.5001 244.223,-172.5001"/>
</g>
</g>
</svg>
