<?xml version="1.0" encoding="UTF-8" standalone="no"?>
<!DOCTYPE svg PUBLIC "-//W3C//DTD SVG 1.1//EN"
 "http://www.w3.org/Graphics/SVG/1.1/DTD/svg11.dtd">
<!-- Generated by graphviz version 2.40.1 (20161225.0304)
 -->
<!-- Title: dependencies Pages: 1 -->
<svg width="1472pt" height="211pt"
 viewBox="0.00 0.00 1472.00 211.00" xmlns="http://www.w3.org/2000/svg" xmlns:xlink="http://www.w3.org/1999/xlink">
<g id="graph0" class="graph" transform="scale(1 1) rotate(0) translate(4 207)">
<title>dependencies</title>
<polygon fill="#ffffff" stroke="transparent" points="-4,4 -4,-207 1468,-207 1468,4 -4,4"/>
<text text-anchor="start" x="711.0091" y="-42.4" font-family="sans-serif" font-weight="bold" font-size="14.00" fill="#000000">Legend</text>
<polygon fill="#ffffb3" stroke="transparent" points="498,-10 498,-30 518,-30 518,-10 498,-10"/>
<text text-anchor="start" x="521.629" y="-15.4" font-family="sans-serif" font-size="14.00" fill="#000000"> &#160;Declarations</text>
<polygon fill="#8dd3c7" stroke="transparent" points="611,-10 611,-30 631,-30 631,-10 611,-10"/>
<text text-anchor="start" x="634.7251" y="-15.4" font-family="sans-serif" font-size="14.00" fill="#000000"> &#160;Module</text>
<polygon fill="#80b1d3" stroke="transparent" points="697,-10 697,-30 717,-30 717,-10 697,-10"/>
<text text-anchor="start" x="720.7812" y="-15.4" font-family="sans-serif" font-size="14.00" fill="#000000"> &#160;Bootstrap</text>
<polygon fill="#fdb462" stroke="transparent" points="794,-10 794,-30 814,-30 814,-10 794,-10"/>
<text text-anchor="start" x="817.6732" y="-15.4" font-family="sans-serif" font-size="14.00" fill="#000000"> &#160;Providers</text>
<polygon fill="#fb8072" stroke="transparent" points="890,-10 890,-30 910,-30 910,-10 890,-10"/>
<text text-anchor="start" x="913.7258" y="-15.4" font-family="sans-serif" font-size="14.00" fill="#000000"> &#160;Exports</text>
<g id="clust1" class="cluster">
<title>cluster_PersonModule</title>
<polygon fill="none" stroke="#000000" stroke-dasharray="1,5" points="8,-70 8,-195 1456,-195 1456,-70 8,-70"/>
</g>
<g id="clust2" class="cluster">
<title>cluster_PersonModule_declarations</title>
<polygon fill="none" stroke="#000000" points="299,-78 299,-130 1448,-130 1448,-78 299,-78"/>
</g>
<g id="clust9" class="cluster">
<title>cluster_PersonModule_imports</title>
<polygon fill="none" stroke="#000000" points="16,-78 16,-130 291,-130 291,-78 16,-78"/>
</g>
<!-- AcademicLevelComponent -->
<g id="node1" class="node">
<title>AcademicLevelComponent</title>
<polygon fill="#ffffb3" stroke="#000000" points="1439.951,-122 1270.049,-122 1270.049,-86 1439.951,-86 1439.951,-122"/>
<text text-anchor="middle" x="1355" y="-99.8" font-family="Times,serif" font-size="14.00" fill="#000000">AcademicLevelComponent</text>
</g>
<!-- PersonModule -->
<g id="node7" class="node">
<title>PersonModule</title>
<polygon fill="#8dd3c7" stroke="#000000" points="703.6528,-187 700.6528,-191 679.6528,-191 676.6528,-187 606.3472,-187 606.3472,-151 703.6528,-151 703.6528,-187"/>
<text text-anchor="middle" x="655" y="-164.8" font-family="Times,serif" font-size="14.00" fill="#000000">PersonModule</text>
</g>
<!-- AcademicLevelComponent&#45;&gt;PersonModule -->
<g id="edge1" class="edge">
<title>AcademicLevelComponent&#45;&gt;PersonModule</title>
<path fill="none" stroke="#000000" d="M1355,-122.2921C1355,-144.2057 1355,-178 1355,-178 1355,-178 713.6669,-178 713.6669,-178"/>
<polygon fill="#000000" stroke="#000000" points="713.6669,-174.5001 703.6669,-178 713.6668,-181.5001 713.6669,-174.5001"/>
</g>
<!-- ModalFormAcademicLevelComponent -->
<g id="node2" class="node">
<title>ModalFormAcademicLevelComponent</title>
<polygon fill="#ffffb3" stroke="#000000" points="1252.3347,-122 1015.6653,-122 1015.6653,-86 1252.3347,-86 1252.3347,-122"/>
<text text-anchor="middle" x="1134" y="-99.8" font-family="Times,serif" font-size="14.00" fill="#000000">ModalFormAcademicLevelComponent</text>
</g>
<!-- ModalFormAcademicLevelComponent&#45;&gt;PersonModule -->
<g id="edge2" class="edge">
<title>ModalFormAcademicLevelComponent&#45;&gt;PersonModule</title>
<path fill="none" stroke="#000000" d="M1134,-122.1061C1134,-141.3391 1134,-169 1134,-169 1134,-169 714.0104,-169 714.0104,-169"/>
<polygon fill="#000000" stroke="#000000" points="714.0104,-165.5001 704.0104,-169 714.0103,-172.5001 714.0104,-165.5001"/>
</g>
<!-- ModalFormPersonComponent -->
<g id="node3" class="node">
<title>ModalFormPersonComponent</title>
<polygon fill="#ffffb3" stroke="#000000" points="997.3187,-122 810.6813,-122 810.6813,-86 997.3187,-86 997.3187,-122"/>
<text text-anchor="middle" x="904" y="-99.8" font-family="Times,serif" font-size="14.00" fill="#000000">ModalFormPersonComponent</text>
</g>
<!-- ModalFormPersonComponent&#45;&gt;PersonModule -->
<g id="edge3" class="edge">
<title>ModalFormPersonComponent&#45;&gt;PersonModule</title>
<path fill="none" stroke="#000000" d="M904,-122.027C904,-138.3976 904,-160 904,-160 904,-160 713.8973,-160 713.8973,-160"/>
<polygon fill="#000000" stroke="#000000" points="713.8973,-156.5001 703.8973,-160 713.8973,-163.5001 713.8973,-156.5001"/>
</g>
<!-- PersonComponent -->
<g id="node4" class="node">
<title>PersonComponent</title>
<polygon fill="#ffffb3" stroke="#000000" points="792.9356,-122 673.0644,-122 673.0644,-86 792.9356,-86 792.9356,-122"/>
<text text-anchor="middle" x="733" y="-99.8" font-family="Times,serif" font-size="14.00" fill="#000000">PersonComponent</text>
</g>
<!-- PersonComponent&#45;&gt;PersonModule -->
<g id="edge4" class="edge">
<title>PersonComponent&#45;&gt;PersonModule</title>
<path fill="none" stroke="#000000" d="M688.5544,-122.1061C688.5544,-122.1061 688.5544,-140.991 688.5544,-140.991"/>
<polygon fill="#000000" stroke="#000000" points="685.0544,-140.9909 688.5544,-150.991 692.0544,-140.991 685.0544,-140.9909"/>
</g>
<!-- PersonHomeComponent -->
<g id="node5" class="node">
<title>PersonHomeComponent</title>
<polygon fill="#ffffb3" stroke="#000000" points="654.647,-122 501.353,-122 501.353,-86 654.647,-86 654.647,-122"/>
<text text-anchor="middle" x="578" y="-99.8" font-family="Times,serif" font-size="14.00" fill="#000000">PersonHomeComponent</text>
</g>
<!-- PersonHomeComponent&#45;&gt;PersonModule -->
<g id="edge5" class="edge">
<title>PersonHomeComponent&#45;&gt;PersonModule</title>
<path fill="none" stroke="#000000" d="M630.4986,-122.1061C630.4986,-122.1061 630.4986,-140.991 630.4986,-140.991"/>
<polygon fill="#000000" stroke="#000000" points="626.9987,-140.9909 630.4986,-150.991 633.9987,-140.991 626.9987,-140.9909"/>
</g>
<!-- PersonsCategoryComponent -->
<g id="node6" class="node">
<title>PersonsCategoryComponent</title>
<polygon fill="#ffffb3" stroke="#000000" points="483.1965,-122 306.8035,-122 306.8035,-86 483.1965,-86 483.1965,-122"/>
<text text-anchor="middle" x="395" y="-99.8" font-family="Times,serif" font-size="14.00" fill="#000000">PersonsCategoryComponent</text>
</g>
<!-- PersonsCategoryComponent&#45;&gt;PersonModule -->
<g id="edge6" class="edge">
<title>PersonsCategoryComponent&#45;&gt;PersonModule</title>
<path fill="none" stroke="#000000" d="M395,-122.027C395,-138.3976 395,-160 395,-160 395,-160 596.096,-160 596.096,-160"/>
<polygon fill="#000000" stroke="#000000" points="596.096,-163.5001 606.096,-160 596.096,-156.5001 596.096,-163.5001"/>
</g>
<!-- PersonRoutingModule -->
<g id="node8" class="node">
<title>PersonRoutingModule</title>
<polygon fill="#8dd3c7" stroke="#000000" points="283.2702,-122 280.2702,-126 259.2702,-126 256.2702,-122 140.7298,-122 140.7298,-86 283.2702,-86 283.2702,-122"/>
<text text-anchor="middle" x="212" y="-99.8" font-family="Times,serif" font-size="14.00" fill="#000000">PersonRoutingModule</text>
</g>
<!-- PersonRoutingModule&#45;&gt;PersonModule -->
<g id="edge7" class="edge">
<title>PersonRoutingModule&#45;&gt;PersonModule</title>
<path fill="none" stroke="#000000" d="M212,-122.1061C212,-141.3391 212,-169 212,-169 212,-169 596.324,-169 596.324,-169"/>
<polygon fill="#000000" stroke="#000000" points="596.3241,-172.5001 606.324,-169 596.324,-165.5001 596.3241,-172.5001"/>
</g>
<!-- SharedModule -->
<g id="node9" class="node">
<title>SharedModule</title>
<polygon fill="#8dd3c7" stroke="#000000" points="122.4231,-122 119.4231,-126 98.4231,-126 95.4231,-122 23.5769,-122 23.5769,-86 122.4231,-86 122.4231,-122"/>
<text text-anchor="middle" x="73" y="-99.8" font-family="Times,serif" font-size="14.00" fill="#000000">SharedModule</text>
</g>
<!-- SharedModule&#45;&gt;PersonModule -->
<g id="edge8" class="edge">
<title>SharedModule&#45;&gt;PersonModule</title>
<path fill="none" stroke="#000000" d="M73,-122.2921C73,-144.2057 73,-178 73,-178 73,-178 595.8806,-178 595.8806,-178"/>
<polygon fill="#000000" stroke="#000000" points="595.8806,-181.5001 605.8806,-178 595.8806,-174.5001 595.8806,-181.5001"/>
</g>
</g>
</svg>
