<?xml version="1.0" encoding="UTF-8" standalone="no"?>
<!DOCTYPE svg PUBLIC "-//W3C//DTD SVG 1.1//EN"
 "http://www.w3.org/Graphics/SVG/1.1/DTD/svg11.dtd">
<!-- Generated by graphviz version 2.40.1 (20161225.0304)
 -->
<!-- Title: dependencies Pages: 1 -->
<svg width="955pt" height="284pt"
 viewBox="0.00 0.00 955.00 284.00" xmlns="http://www.w3.org/2000/svg" xmlns:xlink="http://www.w3.org/1999/xlink">
<g id="graph0" class="graph" transform="scale(1 1) rotate(0) translate(4 280)">
<title>dependencies</title>
<polygon fill="#ffffff" stroke="transparent" points="-4,4 -4,-280 951,-280 951,4 -4,4"/>
<text text-anchor="start" x="452.5091" y="-42.4" font-family="sans-serif" font-weight="bold" font-size="14.00" fill="#000000">Legend</text>
<polygon fill="#ffffb3" stroke="transparent" points="239.5,-10 239.5,-30 259.5,-30 259.5,-10 239.5,-10"/>
<text text-anchor="start" x="263.129" y="-15.4" font-family="sans-serif" font-size="14.00" fill="#000000"> &#160;Declarations</text>
<polygon fill="#8dd3c7" stroke="transparent" points="352.5,-10 352.5,-30 372.5,-30 372.5,-10 352.5,-10"/>
<text text-anchor="start" x="376.2251" y="-15.4" font-family="sans-serif" font-size="14.00" fill="#000000"> &#160;Module</text>
<polygon fill="#80b1d3" stroke="transparent" points="438.5,-10 438.5,-30 458.5,-30 458.5,-10 438.5,-10"/>
<text text-anchor="start" x="462.2812" y="-15.4" font-family="sans-serif" font-size="14.00" fill="#000000"> &#160;Bootstrap</text>
<polygon fill="#fdb462" stroke="transparent" points="535.5,-10 535.5,-30 555.5,-30 555.5,-10 535.5,-10"/>
<text text-anchor="start" x="559.1732" y="-15.4" font-family="sans-serif" font-size="14.00" fill="#000000"> &#160;Providers</text>
<polygon fill="#fb8072" stroke="transparent" points="631.5,-10 631.5,-30 651.5,-30 651.5,-10 631.5,-10"/>
<text text-anchor="start" x="655.2258" y="-15.4" font-family="sans-serif" font-size="14.00" fill="#000000"> &#160;Exports</text>
<g id="clust1" class="cluster">
<title>cluster_AppModule</title>
<polygon fill="none" stroke="#000000" stroke-dasharray="1,5" points="8,-70 8,-268 939,-268 939,-70 8,-70"/>
</g>
<g id="clust2" class="cluster">
<title>cluster_AppModule_declarations</title>
<polygon fill="none" stroke="#000000" points="626,-78 626,-130 931,-130 931,-78 626,-78"/>
</g>
<g id="clust5" class="cluster">
<title>cluster_AppModule_imports</title>
<polygon fill="none" stroke="#000000" points="16,-78 16,-130 618,-130 618,-78 16,-78"/>
</g>
<g id="clust7" class="cluster">
<title>cluster_AppModule_bootstrap</title>
<polygon fill="none" stroke="#000000" points="358,-208 358,-260 482,-260 482,-208 358,-208"/>
</g>
<!-- AppComponent -->
<g id="node1" class="node">
<title>AppComponent</title>
<polygon fill="#ffffb3" stroke="#000000" points="922.9399,-122 817.0601,-122 817.0601,-86 922.9399,-86 922.9399,-122"/>
<text text-anchor="middle" x="870" y="-99.8" font-family="Times,serif" font-size="14.00" fill="#000000">AppComponent</text>
</g>
<!-- AppModule -->
<g id="node3" class="node">
<title>AppModule</title>
<polygon fill="#8dd3c7" stroke="#000000" points="461.6571,-187 458.6571,-191 437.6571,-191 434.6571,-187 378.3429,-187 378.3429,-151 461.6571,-151 461.6571,-187"/>
<text text-anchor="middle" x="420" y="-164.8" font-family="Times,serif" font-size="14.00" fill="#000000">AppModule</text>
</g>
<!-- AppComponent&#45;&gt;AppModule -->
<g id="edge1" class="edge">
<title>AppComponent&#45;&gt;AppModule</title>
<path fill="none" stroke="#000000" d="M870,-122.2921C870,-144.2057 870,-178 870,-178 870,-178 471.9308,-178 471.9308,-178"/>
<polygon fill="#000000" stroke="#000000" points="471.9308,-174.5001 461.9308,-178 471.9308,-181.5001 471.9308,-174.5001"/>
</g>
<!-- PageNotFoundComponent -->
<g id="node2" class="node">
<title>PageNotFoundComponent</title>
<polygon fill="#ffffb3" stroke="#000000" points="799.8243,-122 634.1757,-122 634.1757,-86 799.8243,-86 799.8243,-122"/>
<text text-anchor="middle" x="717" y="-99.8" font-family="Times,serif" font-size="14.00" fill="#000000">PageNotFoundComponent</text>
</g>
<!-- PageNotFoundComponent&#45;&gt;AppModule -->
<g id="edge2" class="edge">
<title>PageNotFoundComponent&#45;&gt;AppModule</title>
<path fill="none" stroke="#000000" d="M717,-122.1061C717,-141.3391 717,-169 717,-169 717,-169 471.9229,-169 471.9229,-169"/>
<polygon fill="#000000" stroke="#000000" points="471.923,-165.5001 461.9229,-169 471.9229,-172.5001 471.923,-165.5001"/>
</g>
<!-- AppComponent  -->
<g id="node9" class="node">
<title>AppComponent </title>
<polygon fill="#80b1d3" stroke="#000000" points="474.439,-252 365.561,-252 365.561,-216 474.439,-216 474.439,-252"/>
<text text-anchor="middle" x="420" y="-229.8" font-family="Times,serif" font-size="14.00" fill="#000000">AppComponent </text>
</g>
<!-- AppModule&#45;&gt;AppComponent  -->
<g id="edge8" class="edge">
<title>AppModule&#45;&gt;AppComponent </title>
<path fill="none" stroke="#000000" stroke-dasharray="1,5" d="M420,-187.1061C420,-187.1061 420,-205.991 420,-205.991"/>
<polygon fill="#000000" stroke="#000000" points="416.5001,-205.9909 420,-215.991 423.5001,-205.991 416.5001,-205.9909"/>
</g>
<!-- AppRoutingModule -->
<g id="node4" class="node">
<title>AppRoutingModule</title>
<polygon fill="#8dd3c7" stroke="#000000" points="610.2744,-122 607.2744,-126 586.2744,-126 583.2744,-122 481.7256,-122 481.7256,-86 610.2744,-86 610.2744,-122"/>
<text text-anchor="middle" x="546" y="-99.8" font-family="Times,serif" font-size="14.00" fill="#000000">AppRoutingModule</text>
</g>
<!-- AppRoutingModule&#45;&gt;AppModule -->
<g id="edge3" class="edge">
<title>AppRoutingModule&#45;&gt;AppModule</title>
<path fill="none" stroke="#000000" d="M546,-122.027C546,-138.3976 546,-160 546,-160 546,-160 471.9562,-160 471.9562,-160"/>
<polygon fill="#000000" stroke="#000000" points="471.9562,-156.5001 461.9562,-160 471.9561,-163.5001 471.9562,-156.5001"/>
</g>
<!-- AuthModule -->
<g id="node5" class="node">
<title>AuthModule</title>
<polygon fill="#8dd3c7" stroke="#000000" points="463.5482,-122 460.5482,-126 439.5482,-126 436.5482,-122 376.4518,-122 376.4518,-86 463.5482,-86 463.5482,-122"/>
<text text-anchor="middle" x="420" y="-99.8" font-family="Times,serif" font-size="14.00" fill="#000000">AuthModule</text>
</g>
<!-- AuthModule&#45;&gt;AppModule -->
<g id="edge4" class="edge">
<title>AuthModule&#45;&gt;AppModule</title>
<path fill="none" stroke="#000000" d="M420,-122.1061C420,-122.1061 420,-140.991 420,-140.991"/>
<polygon fill="#000000" stroke="#000000" points="416.5001,-140.9909 420,-150.991 423.5001,-140.991 416.5001,-140.9909"/>
</g>
<!-- CoreModule -->
<g id="node6" class="node">
<title>CoreModule</title>
<polygon fill="#8dd3c7" stroke="#000000" points="358.2619,-122 355.2619,-126 334.2619,-126 331.2619,-122 271.7381,-122 271.7381,-86 358.2619,-86 358.2619,-122"/>
<text text-anchor="middle" x="315" y="-99.8" font-family="Times,serif" font-size="14.00" fill="#000000">CoreModule</text>
</g>
<!-- CoreModule&#45;&gt;AppModule -->
<g id="edge5" class="edge">
<title>CoreModule&#45;&gt;AppModule</title>
<path fill="none" stroke="#000000" d="M315,-122.027C315,-138.3976 315,-160 315,-160 315,-160 368.1995,-160 368.1995,-160"/>
<polygon fill="#000000" stroke="#000000" points="368.1996,-163.5001 378.1995,-160 368.1995,-156.5001 368.1996,-163.5001"/>
</g>
<!-- GraphQLModule -->
<g id="node7" class="node">
<title>GraphQLModule</title>
<polygon fill="#8dd3c7" stroke="#000000" points="253.691,-122 250.691,-126 229.691,-126 226.691,-122 140.309,-122 140.309,-86 253.691,-86 253.691,-122"/>
<text text-anchor="middle" x="197" y="-99.8" font-family="Times,serif" font-size="14.00" fill="#000000">GraphQLModule</text>
</g>
<!-- GraphQLModule&#45;&gt;AppModule -->
<g id="edge6" class="edge">
<title>GraphQLModule&#45;&gt;AppModule</title>
<path fill="none" stroke="#000000" d="M197,-122.1061C197,-141.3391 197,-169 197,-169 197,-169 368.317,-169 368.317,-169"/>
<polygon fill="#000000" stroke="#000000" points="368.317,-172.5001 378.317,-169 368.317,-165.5001 368.317,-172.5001"/>
</g>
<!-- SharedModule -->
<g id="node8" class="node">
<title>SharedModule</title>
<polygon fill="#8dd3c7" stroke="#000000" points="122.4231,-122 119.4231,-126 98.4231,-126 95.4231,-122 23.5769,-122 23.5769,-86 122.4231,-86 122.4231,-122"/>
<text text-anchor="middle" x="73" y="-99.8" font-family="Times,serif" font-size="14.00" fill="#000000">SharedModule</text>
</g>
<!-- SharedModule&#45;&gt;AppModule -->
<g id="edge7" class="edge">
<title>SharedModule&#45;&gt;AppModule</title>
<path fill="none" stroke="#000000" d="M73,-122.2921C73,-144.2057 73,-178 73,-178 73,-178 368.1437,-178 368.1437,-178"/>
<polygon fill="#000000" stroke="#000000" points="368.1437,-181.5001 378.1437,-178 368.1437,-174.5001 368.1437,-181.5001"/>
</g>
</g>
</svg>
